<svg width="12" height="12" viewBox="0 0 12 12" fill="none" xmlns="http://www.w3.org/2000/svg">
<path fill-rule="evenodd" clip-rule="evenodd" d="M0 0.5C0 0.223858 0.173309 0 0.387097 0H11.6129C11.8267 0 12 0.223858 12 0.5C12 0.776142 11.8267 1 11.6129 1H0.387097C0.173309 1 0 0.776142 0 0.5Z" fill="#525559"/>
<path fill-rule="evenodd" clip-rule="evenodd" d="M0 5.5C0 5.22386 0.173309 5 0.387097 5H8.90323C9.11701 5 9.29032 5.22386 9.29032 5.5C9.29032 5.77614 9.11701 6 8.90323 6H0.387097C0.173309 6 0 5.77614 0 5.5Z" fill="#525559"/>
<path fill-rule="evenodd" clip-rule="evenodd" d="M0 11.5C0 11.2239 0.173309 11 0.387097 11H5.80645C6.02024 11 6.19355 11.2239 6.19355 11.5C6.19355 11.7761 6.02024 12 5.80645 12H0.387097C0.173309 12 0 11.7761 0 11.5Z" fill="#525559"/>
</svg>
