<svg width="25" height="23" viewBox="0 0 25 23" fill="none" xmlns="http://www.w3.org/2000/svg">
<path d="M12.1918 15.4433C12.8418 15.4433 13.4106 16.0141 13.4106 16.6665C13.4106 17.3189 12.8418 17.8897 12.1918 17.8897C11.5418 17.8897 10.9731 17.3189 10.9731 16.6665C10.9731 16.0141 11.5418 15.4433 12.1918 15.4433ZM12.1918 6.88076C12.6793 6.88076 13.0043 7.20695 13.0043 7.69623V12.5891C13.0043 13.0784 12.6793 13.4046 12.1918 13.4046C11.7043 13.4046 11.3793 13.0784 11.3793 12.5891V7.69623C11.3793 7.20695 11.7043 6.88076 12.1918 6.88076ZM12.1918 1.74326C13.0856 1.74326 13.8168 2.23254 14.3043 2.96647L22.4293 17.1558C22.8356 17.8897 22.8356 18.7867 22.4293 19.6022C22.0231 20.2546 21.2106 20.7439 20.3168 20.7439H4.06682C3.17307 20.7439 2.44182 20.2546 1.95432 19.5206C1.54807 18.7867 1.54807 17.8897 1.95432 17.0742L10.0793 2.88492C10.5668 2.23254 11.2981 1.74326 12.1918 1.74326ZM12.1918 0.112305C10.8106 0.112305 9.51057 0.764685 8.69807 2.151L0.573069 16.3403C-0.970681 19.0314 0.979319 22.3748 4.06682 22.3748H20.3168C23.4043 22.3748 25.3543 19.0314 23.8106 16.2587L15.6856 2.06945C14.8731 0.764686 13.5731 0.112305 12.1918 0.112305Z" fill="#525559"/>
</svg>
