<svg width="18" height="16" viewBox="0 0 18 16" fill="none" xmlns="http://www.w3.org/2000/svg">
<path d="M1.5 7.0625H14.25L9.625 2.4375C9.25 2.0625 9.25 1.5 9.625 1.125C10 0.75 10.5625 0.75 10.9375 1.125L17.1875 7.375C17.5625 7.75 17.5625 8.3125 17.1875 8.6875L10.9375 14.9375C10.75 15.125 10.5 15.1875 10.25 15.1875C10 15.1875 9.75 15.125 9.5625 14.9375C9.1875 14.5625 9.1875 14 9.5625 13.625L14.1875 9H1.5C1 9 0.562502 8.5625 0.562502 8.0625C0.562502 7.5625 1 7.0625 1.5 7.0625Z" fill="#525559"/>
</svg>
