<svg width="20" height="16" viewBox="0 0 20 16" xmlns="http://www.w3.org/2000/svg">
<path d="M9.375 6.125C9.375 5.75 9.125 5.5 8.75 5.5H1.875C1.5 5.5 1.25 5.25 1.25 4.875V2.375C1.25 2 1.5 1.75 1.875 1.75H8.75C9.125 1.75 9.375 1.5 9.375 1.125C9.375 0.75 9.125 0.5 8.75 0.5H1.875C0.8125 0.5 0 1.3125 0 2.375V4.875C0 5.9375 0.8125 6.75 1.875 6.75H8.75C9.125 6.75 9.375 6.5 9.375 6.125ZM18.125 9.25H16.25V5.5C16.25 4.125 15.125 3 13.75 3H10.875L12.3125 1.5625C12.5625 1.3125 12.5625 0.9375 12.3125 0.6875C12.0625 0.4375 11.6875 0.4375 11.4375 0.6875L8.9375 3.1875C8.6875 3.4375 8.6875 3.8125 8.9375 4.0625L11.4375 6.5625C11.6875 6.8125 12.0625 6.8125 12.3125 6.5625C12.5625 6.3125 12.5625 5.9375 12.3125 5.6875L10.875 4.25H13.75C14.4375 4.25 15 4.8125 15 5.5V9.25H5.625C4.5625 9.25 3.75 10.0625 3.75 11.125V13.625C3.75 14.6875 4.5625 15.5 5.625 15.5H18.125C19.1875 15.5 20 14.6875 20 13.625V11.125C20 10.0625 19.1875 9.25 18.125 9.25ZM18.75 13.625C18.75 14 18.5 14.25 18.125 14.25H5.625C5.25 14.25 5 14 5 13.625V11.125C5 10.75 5.25 10.5 5.625 10.5H18.125C18.5 10.5 18.75 10.75 18.75 11.125V13.625Z"/>
</svg>
