<svg width="14" height="15" viewBox="0 0 14 15" fill="none" xmlns="http://www.w3.org/2000/svg">
<path d="M11 1V0.5C11 0.2 10.8 0 10.5 0C10.2 0 10 0.2 10 0.5V1H4V0.5C4 0.2 3.8 0 3.5 0C3.2 0 3 0.2 3 0.5V1C1.35 1 0 2.35 0 4V12C0 13.65 1.35 15 3 15H11C12.65 15 14 13.65 14 12V4C14 2.35 12.65 1 11 1ZM3 2V2.5C3 2.8 3.2 3 3.5 3C3.8 3 4 2.8 4 2.5V2H10V2.5C10 2.8 10.2 3 10.5 3C10.8 3 11 2.8 11 2.5V2C12.1 2 13 2.9 13 4V5H1V4C1 2.9 1.9 2 3 2ZM11 14H3C1.9 14 1 13.1 1 12V6H13V12C13 13.1 12.1 14 11 14Z" fill="#626262"/>
</svg>
