<svg width="10" height="17" viewBox="0 0 10 17" fill="none" xmlns="http://www.w3.org/2000/svg">
<path d="M8.5 0.558594H1.5C0.65 0.558594 0 1.20859 0 2.05859V15.0586C0 15.9086 0.65 16.5586 1.5 16.5586H8.5C9.35 16.5586 10 15.9086 10 15.0586V2.05859C10 1.20859 9.35 0.558594 8.5 0.558594ZM1.5 1.55859H8.5C8.8 1.55859 9 1.75859 9 2.05859V2.55859H1V2.05859C1 1.75859 1.2 1.55859 1.5 1.55859ZM9 3.55859V12.5586H1V3.55859H9ZM8.5 15.5586H1.5C1.2 15.5586 1 15.3586 1 15.0586V13.5586H9V15.0586C9 15.3586 8.8 15.5586 8.5 15.5586ZM5 14.0586C5.3 14.0586 5.5 14.2586 5.5 14.5586C5.5 14.8586 5.3 15.0586 5 15.0586C4.7 15.0586 4.5 14.8586 4.5 14.5586C4.5 14.2586 4.7 14.0586 5 14.0586Z" fill="#525559"/>
</svg>
