<svg width="16" height="16" viewBox="0 0 16 16" fill="none" xmlns="http://www.w3.org/2000/svg">
<path d="M9.3125 8L14.875 2.4375C15.25 2.0625 15.25 1.5 14.875 1.125C14.5 0.75 13.9375 0.75 13.5625 1.125L8 6.6875L2.4375 1.0625C2.0625 0.6875 1.5 0.6875 1.125 1.0625C0.75 1.4375 0.75 2 1.125 2.375L6.6875 7.9375L1.125 13.5C0.75 13.875 0.75 14.4375 1.125 14.8125C1.3125 15 1.5625 15.0625 1.8125 15.0625C2.0625 15.0625 2.3125 15 2.5 14.8125L8.0625 9.25L13.625 14.8125C13.8125 15 14.0625 15.0625 14.3125 15.0625C14.5625 15.0625 14.8125 15 15 14.8125C15.375 14.4375 15.375 13.875 15 13.5L9.3125 8Z" fill="#525559"/>
</svg>
