<svg width="16" height="15" viewBox="0 0 16 15" fill="none" xmlns="http://www.w3.org/2000/svg">
<path d="M14 5.60059H11V2.60059C11 1.50059 10.1 0.600586 9 0.600586H2C0.9 0.600586 0 1.50059 0 2.60059V12.6006C0 13.7006 0.9 14.6006 2 14.6006H14C15.1 14.6006 16 13.7006 16 12.6006V7.60059C16 6.50059 15.1 5.60059 14 5.60059ZM1 12.6006V2.60059C1 2.05059 1.45 1.60059 2 1.60059H9C9.55 1.60059 10 2.05059 10 2.60059V13.6006H2C1.45 13.6006 1 13.1506 1 12.6006ZM15 12.6006C15 13.1506 14.55 13.6006 14 13.6006H11V6.60059H14C14.55 6.60059 15 7.05059 15 7.60059V12.6006ZM4.75 4.60059C4.75 5.00059 4.4 5.35059 4 5.35059C3.6 5.35059 3.25 5.00059 3.25 4.60059C3.25 4.20059 3.6 3.85059 4 3.85059C4.4 3.85059 4.75 4.20059 4.75 4.60059ZM7.75 4.60059C7.75 5.00059 7.4 5.35059 7 5.35059C6.6 5.35059 6.25 5.00059 6.25 4.60059C6.25 4.20059 6.6 3.85059 7 3.85059C7.4 3.85059 7.75 4.20059 7.75 4.60059ZM4.75 7.60059C4.75 8.00059 4.4 8.35059 4 8.35059C3.6 8.35059 3.25 8.00059 3.25 7.60059C3.25 7.20059 3.6 6.85059 4 6.85059C4.4 6.85059 4.75 7.20059 4.75 7.60059ZM7.75 7.60059C7.75 8.00059 7.4 8.35059 7 8.35059C6.6 8.35059 6.25 8.00059 6.25 7.60059C6.25 7.20059 6.6 6.85059 7 6.85059C7.4 6.85059 7.75 7.20059 7.75 7.60059ZM13.75 8.60059C13.75 9.00059 13.4 9.35059 13 9.35059C12.6 9.35059 12.25 9.00059 12.25 8.60059C12.25 8.20059 12.6 7.85059 13 7.85059C13.4 7.85059 13.75 8.20059 13.75 8.60059ZM13.75 11.6006C13.75 12.0006 13.4 12.3506 13 12.3506C12.6 12.3506 12.25 12.0006 12.25 11.6006C12.25 11.2006 12.6 10.8506 13 10.8506C13.4 10.8506 13.75 11.2006 13.75 11.6006ZM4.75 10.6006C4.75 11.0006 4.4 11.3506 4 11.3506C3.6 11.3506 3.25 11.0006 3.25 10.6006C3.25 10.2006 3.6 9.85059 4 9.85059C4.4 9.85059 4.75 10.2006 4.75 10.6006ZM7.75 10.6006C7.75 11.0006 7.4 11.3506 7 11.3506C6.6 11.3506 6.25 11.0006 6.25 10.6006C6.25 10.2006 6.6 9.85059 7 9.85059C7.4 9.85059 7.75 10.2006 7.75 10.6006Z" fill="#525559"/>
</svg>
