<svg width="22" height="22" viewBox="0 0 22 22" fill="none" xmlns="http://www.w3.org/2000/svg">
<path d="M11 0C4.95 0 0 4.95 0 11C0 17.05 4.95 22 11 22C17.05 22 22 17.05 22 11C22 4.95 17.05 0 11 0ZM16.0187 9.14375L9.625 15.5375C9.41875 15.7438 9.14375 15.8125 8.86875 15.8125C8.59375 15.8125 8.31875 15.7438 8.1125 15.5375L5.5 12.925C5.0875 12.5125 5.0875 11.8938 5.5 11.4813C5.9125 11.0688 6.53125 11.0688 6.94375 11.4813L8.86875 13.4062L14.575 7.7C14.9875 7.2875 15.6062 7.2875 16.0187 7.7C16.4312 8.1125 16.4312 8.73125 16.0187 9.14375Z" fill="#6EDC5D"/>
</svg>
