<svg width="20" height="18" viewBox="0 0 20 18" xmlns="http://www.w3.org/2000/svg">
<path d="M17.5 6.5H13.75V2.75C13.75 1.375 12.625 0.25 11.25 0.25H2.5C1.125 0.25 0 1.375 0 2.75V15.25C0 16.625 1.125 17.75 2.5 17.75H17.5C18.875 17.75 20 16.625 20 15.25V9C20 7.625 18.875 6.5 17.5 6.5ZM1.25 15.25V2.75C1.25 2.0625 1.8125 1.5 2.5 1.5H11.25C11.9375 1.5 12.5 2.0625 12.5 2.75V16.5H2.5C1.8125 16.5 1.25 15.9375 1.25 15.25ZM18.75 15.25C18.75 15.9375 18.1875 16.5 17.5 16.5H13.75V7.75H17.5C18.1875 7.75 18.75 8.3125 18.75 9V15.25ZM5.9375 5.25C5.9375 5.75 5.5 6.1875 5 6.1875C4.5 6.1875 4.0625 5.75 4.0625 5.25C4.0625 4.75 4.5 4.3125 5 4.3125C5.5 4.3125 5.9375 4.75 5.9375 5.25ZM9.6875 5.25C9.6875 5.75 9.25 6.1875 8.75 6.1875C8.25 6.1875 7.8125 5.75 7.8125 5.25C7.8125 4.75 8.25 4.3125 8.75 4.3125C9.25 4.3125 9.6875 4.75 9.6875 5.25ZM5.9375 9C5.9375 9.5 5.5 9.9375 5 9.9375C4.5 9.9375 4.0625 9.5 4.0625 9C4.0625 8.5 4.5 8.0625 5 8.0625C5.5 8.0625 5.9375 8.5 5.9375 9ZM9.6875 9C9.6875 9.5 9.25 9.9375 8.75 9.9375C8.25 9.9375 7.8125 9.5 7.8125 9C7.8125 8.5 8.25 8.0625 8.75 8.0625C9.25 8.0625 9.6875 8.5 9.6875 9ZM17.1875 10.25C17.1875 10.75 16.75 11.1875 16.25 11.1875C15.75 11.1875 15.3125 10.75 15.3125 10.25C15.3125 9.75 15.75 9.3125 16.25 9.3125C16.75 9.3125 17.1875 9.75 17.1875 10.25ZM17.1875 14C17.1875 14.5 16.75 14.9375 16.25 14.9375C15.75 14.9375 15.3125 14.5 15.3125 14C15.3125 13.5 15.75 13.0625 16.25 13.0625C16.75 13.0625 17.1875 13.5 17.1875 14ZM5.9375 12.75C5.9375 13.25 5.5 13.6875 5 13.6875C4.5 13.6875 4.0625 13.25 4.0625 12.75C4.0625 12.25 4.5 11.8125 5 11.8125C5.5 11.8125 5.9375 12.25 5.9375 12.75ZM9.6875 12.75C9.6875 13.25 9.25 13.6875 8.75 13.6875C8.25 13.6875 7.8125 13.25 7.8125 12.75C7.8125 12.25 8.25 11.8125 8.75 11.8125C9.25 11.8125 9.6875 12.25 9.6875 12.75Z" />
</svg>
