<svg width="21" height="18" viewBox="0 0 21 18" fill="none" xmlns="http://www.w3.org/2000/svg">
<path d="M18.4347 6.5H14.6847V2.75C14.6847 1.375 13.5597 0.25 12.1847 0.25H3.43469C2.05969 0.25 0.934692 1.375 0.934692 2.75V15.25C0.934692 16.625 2.05969 17.75 3.43469 17.75H18.4347C19.8097 17.75 20.9347 16.625 20.9347 15.25V9C20.9347 7.625 19.8097 6.5 18.4347 6.5ZM2.18469 15.25V2.75C2.18469 2.0625 2.74719 1.5 3.43469 1.5H12.1847C12.8722 1.5 13.4347 2.0625 13.4347 2.75V16.5H3.43469C2.74719 16.5 2.18469 15.9375 2.18469 15.25ZM19.6847 15.25C19.6847 15.9375 19.1222 16.5 18.4347 16.5H14.6847V7.75H18.4347C19.1222 7.75 19.6847 8.3125 19.6847 9V15.25ZM6.87219 5.25C6.87219 5.75 6.43469 6.1875 5.93469 6.1875C5.43469 6.1875 4.99719 5.75 4.99719 5.25C4.99719 4.75 5.43469 4.3125 5.93469 4.3125C6.43469 4.3125 6.87219 4.75 6.87219 5.25ZM10.6222 5.25C10.6222 5.75 10.1847 6.1875 9.68469 6.1875C9.18469 6.1875 8.74719 5.75 8.74719 5.25C8.74719 4.75 9.18469 4.3125 9.68469 4.3125C10.1847 4.3125 10.6222 4.75 10.6222 5.25ZM6.87219 9C6.87219 9.5 6.43469 9.9375 5.93469 9.9375C5.43469 9.9375 4.99719 9.5 4.99719 9C4.99719 8.5 5.43469 8.0625 5.93469 8.0625C6.43469 8.0625 6.87219 8.5 6.87219 9ZM10.6222 9C10.6222 9.5 10.1847 9.9375 9.68469 9.9375C9.18469 9.9375 8.74719 9.5 8.74719 9C8.74719 8.5 9.18469 8.0625 9.68469 8.0625C10.1847 8.0625 10.6222 8.5 10.6222 9ZM18.1222 10.25C18.1222 10.75 17.6847 11.1875 17.1847 11.1875C16.6847 11.1875 16.2472 10.75 16.2472 10.25C16.2472 9.75 16.6847 9.3125 17.1847 9.3125C17.6847 9.3125 18.1222 9.75 18.1222 10.25ZM18.1222 14C18.1222 14.5 17.6847 14.9375 17.1847 14.9375C16.6847 14.9375 16.2472 14.5 16.2472 14C16.2472 13.5 16.6847 13.0625 17.1847 13.0625C17.6847 13.0625 18.1222 13.5 18.1222 14ZM6.87219 12.75C6.87219 13.25 6.43469 13.6875 5.93469 13.6875C5.43469 13.6875 4.99719 13.25 4.99719 12.75C4.99719 12.25 5.43469 11.8125 5.93469 11.8125C6.43469 11.8125 6.87219 12.25 6.87219 12.75ZM10.6222 12.75C10.6222 13.25 10.1847 13.6875 9.68469 13.6875C9.18469 13.6875 8.74719 13.25 8.74719 12.75C8.74719 12.25 9.18469 11.8125 9.68469 11.8125C10.1847 11.8125 10.6222 12.25 10.6222 12.75Z" fill="#525559"/>
</svg>
