<svg width="17" height="16" viewBox="0 0 17 16" fill="none" xmlns="http://www.w3.org/2000/svg">
<path d="M8.93469 0C13.3528 0 16.9347 3.58186 16.9347 8C16.9347 12.4181 13.3528 16 8.93469 16C4.51655 16 0.934692 12.4181 0.934692 8C0.934692 3.58186 4.51655 0 8.93469 0ZM10.8671 11.2569H7.00232C5.9767 11.2569 5.14862 11.9913 5.08139 12.9052L5.07698 13.0254L5.07689 13.8655C6.18394 14.5951 7.50975 15.0198 8.93469 15.0198C10.36 15.0198 11.6861 14.5949 12.7933 13.865L12.7924 13.0254C12.7924 12.0565 11.9373 11.2569 10.8671 11.2569ZM8.93469 0.980237C5.05792 0.980237 1.91493 4.12323 1.91493 8C1.91493 10.0017 2.75283 11.8077 4.097 13.0866L4.09675 13.0254C4.09675 11.5491 5.32187 10.3559 6.84867 10.2805L7.00232 10.2767H10.8671C12.4129 10.2767 13.6879 11.4222 13.7686 12.8788L13.7726 13.0254L13.7732 13.0858C15.1169 11.807 15.9545 10.0013 15.9545 8C15.9545 4.12323 12.8115 0.980237 8.93469 0.980237ZM9.02955 2.37154C11.0462 2.37154 12.6817 4.00705 12.6817 6.02371C12.6817 8.04038 11.0462 9.67589 9.02955 9.67589C7.01289 9.67589 5.37738 8.04038 5.37738 6.02371C5.37738 4.00705 7.01289 2.37154 9.02955 2.37154ZM9.02955 3.35178C7.55426 3.35178 6.35762 4.54842 6.35762 6.02371C6.35762 7.49901 7.55426 8.69565 9.02955 8.69565C10.5048 8.69565 11.7015 7.49901 11.7015 6.02371C11.7015 4.54842 10.5048 3.35178 9.02955 3.35178Z" fill="#525559"/>
</svg>
