<svg width="19" height="18" viewBox="0 0 19 18" xmlns="http://www.w3.org/2000/svg">
<path d="M18 0.25H11.875C10.875 0.25 9.9375 0.6875 9.375 1.5C8.8125 0.6875 7.875 0.25 6.875 0.25H0.75C0.375 0.25 0 0.625 0 1V15.6875C0 16.125 0.375 16.5 0.75 16.5H6.875C7.5625 16.5 8.1875 16.875 8.5 17.4375C8.625 17.625 8.8125 17.75 9.0625 17.75H9.75C10 17.75 10.1875 17.625 10.3125 17.4375C10.625 16.875 11.25 16.5 11.9375 16.5H18.0625C18.5 16.5 18.8125 16.125 18.8125 15.75V1C18.75 0.625 18.375 0.25 18 0.25ZM6.875 15.25H1.25V1.5H6.875C7.9375 1.5 8.75 2.3125 8.75 3.375V15.875C8.1875 15.5 7.5625 15.25 6.875 15.25ZM17.5 15.25H11.875C11.1875 15.25 10.5625 15.5 10 15.875V3.375C10 2.3125 10.8125 1.5 11.875 1.5H17.5V15.25ZM2.5 4H7.5V5.25H2.5V4ZM2.5 7.75H7.5V9H2.5V7.75ZM2.5 11.5H7.5V12.75H2.5V11.5ZM11.25 4H16.25V5.25H11.25V4ZM11.25 7.75H16.25V9H11.25V7.75ZM11.25 11.5H16.25V12.75H11.25V11.5Z" />
</svg>
