<svg width="29" height="28" viewBox="0 0 29 28" fill="none" xmlns="http://www.w3.org/2000/svg">
<path d="M27.75 10.5H10.25C9.5625 10.5 9 11.0625 9 11.75V24.25C9 24.9375 9.5625 25.5 10.25 25.5H27.75C28.4375 25.5 29 24.9375 29 24.25V11.75C29 11.0625 28.4375 10.5 27.75 10.5ZM24.0625 24.25H13.9375C13.6875 22.3125 12.125 20.8125 10.25 20.5625V15.4375C12.1875 15.1875 13.6875 13.6875 13.9375 11.75H24.0625C24.3125 13.6875 25.875 15.1875 27.75 15.4375V20.5625C25.8125 20.8125 24.3125 22.3125 24.0625 24.25ZM27.75 14.1875C26.5 13.9375 25.5625 13 25.3125 11.75H27.75V14.1875ZM12.6875 11.75C12.4375 13 11.5 13.9375 10.25 14.1875V11.75H12.6875ZM10.25 21.8125C11.5 22.0625 12.4375 23 12.6875 24.25H10.25V21.8125ZM25.3125 24.25C25.5625 23 26.5 22.0625 27.75 21.8125V24.25H25.3125ZM18.9375 14.5C17.0625 14.5 15.5 16.0625 15.5 17.9375C15.5 19.8125 17.0625 21.375 18.9375 21.375C20.8125 21.375 22.375 19.8125 22.375 17.9375C22.375 16.0625 20.875 14.5 18.9375 14.5ZM18.9375 20.125C17.75 20.125 16.75 19.125 16.75 17.9375C16.75 16.75 17.75 15.75 18.9375 15.75C20.125 15.75 21.125 16.75 21.125 17.9375C21.125 19.125 20.125 20.125 18.9375 20.125Z" fill="#525559"/>
<path d="M0 16L9 20V14L1.89474 13L0 16Z" fill="#37EC54"/>
<path d="M0 0H20C22.7614 0 25 2.23858 25 5V16H0V0Z" fill="url(#paint0_linear)"/>
<path d="M7.648 7.81C7.888 7.894 8.076 8.026 8.212 8.206C8.348 8.382 8.416 8.596 8.416 8.848C8.416 9.216 8.268 9.5 7.972 9.7C7.676 9.9 7.248 10 6.688 10H4.42V5.8H6.568C7.104 5.8 7.512 5.9 7.792 6.1C8.072 6.296 8.212 6.562 8.212 6.898C8.212 7.098 8.162 7.278 8.062 7.438C7.966 7.594 7.828 7.718 7.648 7.81ZM5.596 6.658V7.468H6.412C6.812 7.468 7.012 7.332 7.012 7.06C7.012 6.792 6.812 6.658 6.412 6.658H5.596ZM6.592 9.142C7.008 9.142 7.216 9 7.216 8.716C7.216 8.432 7.008 8.29 6.592 8.29H5.596V9.142H6.592ZM12.4033 9.082V10H9.03133V5.8H12.3253V6.718H10.2073V7.426H12.0733V8.314H10.2073V9.082H12.4033ZM13.9566 6.742H12.6666V5.8H16.4286V6.742H15.1446V10H13.9566V6.742ZM19.4742 9.184H17.6982L17.3682 10H16.1562L18.0102 5.8H19.1802L21.0402 10H19.8042L19.4742 9.184ZM19.1262 8.308L18.5862 6.964L18.0462 8.308H19.1262Z" fill="#2C2C2C"/>
<defs>
<linearGradient id="paint0_linear" x1="3.125" y1="2.28571" x2="25.4138" y2="10.6658" gradientUnits="userSpaceOnUse">
<stop stop-color="#B9FF83"/>
<stop offset="1" stop-color="#FEF4CF"/>
</linearGradient>
</defs>
</svg>
