<svg width="16" height="12" viewBox="0 0 16 12"  xmlns="http://www.w3.org/2000/svg">
<path d="M13 12H3C1.35 12 0 10.65 0 9V3C0 1.35 1.35 0 3 0H13C14.65 0 16 1.35 16 3V9C16 10.65 14.65 12 13 12ZM3 1C1.9 1 1 1.9 1 3V9C1 10.1 1.9 11 3 11H13C14.1 11 15 10.1 15 9V3C15 1.9 14.1 1 13 1H3ZM4.3 8.1L6.9 6.05L9.45 7.6C9.65 7.75 9.95 7.7 10.1 7.5L12.4 4.65C12.55 4.45 12.55 4.1 12.3 3.95C12.1 3.8 11.75 3.8 11.6 4.05L9.6 6.55L7.1 5.05C6.9 4.95 6.7 4.95 6.55 5.1L3.7 7.4C3.5 7.55 3.45 7.9 3.6 8.1C3.7 8.2 3.85 8.3 4 8.3C4.1 8.2 4.2 8.2 4.3 8.1Z" />
</svg>
