<svg width="14" height="16" viewBox="0 0 14 16" fill="none" xmlns="http://www.w3.org/2000/svg">
<path d="M11 1.92969V1.42969C11 1.12969 10.8 0.929688 10.5 0.929688C10.2 0.929688 10 1.12969 10 1.42969V1.92969H4V1.42969C4 1.12969 3.8 0.929688 3.5 0.929688C3.2 0.929688 3 1.12969 3 1.42969V1.92969C1.35 1.92969 0 3.27969 0 4.92969V12.9297C0 14.5797 1.35 15.9297 3 15.9297H11C12.65 15.9297 14 14.5797 14 12.9297V4.92969C14 3.27969 12.65 1.92969 11 1.92969ZM3 2.92969V3.42969C3 3.72969 3.2 3.92969 3.5 3.92969C3.8 3.92969 4 3.72969 4 3.42969V2.92969H10V3.42969C10 3.72969 10.2 3.92969 10.5 3.92969C10.8 3.92969 11 3.72969 11 3.42969V2.92969C12.1 2.92969 13 3.82969 13 4.92969V5.92969H1V4.92969C1 3.82969 1.9 2.92969 3 2.92969ZM11 14.9297H3C1.9 14.9297 1 14.0297 1 12.9297V6.92969H13V12.9297C13 14.0297 12.1 14.9297 11 14.9297Z" fill="#85929B"/>
</svg>
