<svg id="Layer_1" data-name="Layer 1" xmlns="http://www.w3.org/2000/svg" viewBox="0 0 390.64 266.31"><defs><style>.cls-1{fill:#fff;}.cls-2{fill:#ddd;}</style></defs><title>building-regular</title><path class="cls-1" d="M288.09,119.76V107a3.75,3.75,0,0,1,3.65-3.83H303.9a3.75,3.75,0,0,1,3.65,3.83v12.76a3.75,3.75,0,0,1-3.65,3.83H291.74A3.75,3.75,0,0,1,288.09,119.76Zm42.57,3.83h12.16a3.75,3.75,0,0,0,3.65-3.83V107a3.75,3.75,0,0,0-3.65-3.83H330.66A3.75,3.75,0,0,0,327,107v12.76A3.75,3.75,0,0,0,330.66,123.58Zm-38.92,33.53H303.9a3.75,3.75,0,0,0,3.65-3.83V140.53a3.75,3.75,0,0,0-3.65-3.83H291.74a3.75,3.75,0,0,0-3.65,3.83v12.76A3.75,3.75,0,0,0,291.74,157.11Zm38.92,0h12.16a3.75,3.75,0,0,0,3.65-3.83V140.53a3.75,3.75,0,0,0-3.65-3.83H330.66a3.75,3.75,0,0,0-3.65,3.83v12.76A3.75,3.75,0,0,0,330.66,157.11Zm-23.11,29.7V174.05a3.75,3.75,0,0,0-3.65-3.83H291.74a3.75,3.75,0,0,0-3.65,3.83v12.76a3.75,3.75,0,0,0,3.65,3.83H303.9A3.75,3.75,0,0,0,307.55,186.81Zm23.11,3.83h12.16a3.75,3.75,0,0,0,3.65-3.83V174.05a3.75,3.75,0,0,0-3.65-3.83H330.66a3.75,3.75,0,0,0-3.65,3.83v12.76A3.75,3.75,0,0,0,330.66,190.64Zm67.45,61v6.34H236.6V251.6a4.45,4.45,0,0,1,4.33-4.54h7V73.41a8.85,8.85,0,0,1,8.65-9.08H378.1a8.85,8.85,0,0,1,8.65,9.08V247.07h7A4.45,4.45,0,0,1,398.11,251.6ZM256,249.4h51v-24a4.87,4.87,0,0,1,4.74-5h11.45a4.87,4.87,0,0,1,4.74,5v24h51V72l-122.79-.41Z" transform="translate(-7.46 -10.21)"/><path class="cls-1" d="M59,119.76V107a3.75,3.75,0,0,1,3.65-3.83H74.76A3.75,3.75,0,0,1,78.41,107v12.76a3.75,3.75,0,0,1-3.65,3.83H62.6A3.75,3.75,0,0,1,59,119.76Zm42.57,3.83h12.16a3.75,3.75,0,0,0,3.65-3.83V107a3.75,3.75,0,0,0-3.65-3.83H101.52A3.75,3.75,0,0,0,97.87,107v12.76A3.75,3.75,0,0,0,101.52,123.58ZM62.6,157.11H74.76a3.75,3.75,0,0,0,3.65-3.83V140.53a3.75,3.75,0,0,0-3.65-3.83H62.6A3.75,3.75,0,0,0,59,140.53v12.76A3.75,3.75,0,0,0,62.6,157.11Zm38.92,0h12.16a3.75,3.75,0,0,0,3.65-3.83V140.53a3.75,3.75,0,0,0-3.65-3.83H101.52a3.75,3.75,0,0,0-3.65,3.83v12.76A3.75,3.75,0,0,0,101.52,157.11Zm-23.11,29.7V174.05a3.75,3.75,0,0,0-3.65-3.83H62.6A3.75,3.75,0,0,0,59,174.05v12.76a3.75,3.75,0,0,0,3.65,3.83H74.76A3.75,3.75,0,0,0,78.41,186.81Zm23.11,3.83h12.16a3.75,3.75,0,0,0,3.65-3.83V174.05a3.75,3.75,0,0,0-3.65-3.83H101.52a3.75,3.75,0,0,0-3.65,3.83v12.76A3.75,3.75,0,0,0,101.52,190.64Zm67.45,61v6.34H7.46V251.6a4.45,4.45,0,0,1,4.33-4.54h7V73.41a8.85,8.85,0,0,1,8.65-9.08H149a8.85,8.85,0,0,1,8.65,9.08V247.07h7A4.45,4.45,0,0,1,169,251.6ZM26.85,249.4h51v-24a4.87,4.87,0,0,1,4.74-5H94.07a4.87,4.87,0,0,1,4.74,5v24h51V72L27,71.63Z" transform="translate(-7.46 -10.21)"/><rect class="cls-2" x="112.2" y="6.27" width="171.88" height="249.03"/><path class="cls-1" d="M163,86.45V68.9a5.16,5.16,0,0,1,5-5.26h16.73a5.16,5.16,0,0,1,5,5.26V86.45a5.16,5.16,0,0,1-5,5.26H168.05A5.16,5.16,0,0,1,163,86.45Zm58.55,5.26h16.73a5.16,5.16,0,0,0,5-5.26V68.9a5.16,5.16,0,0,0-5-5.26H221.58a5.16,5.16,0,0,0-5,5.26V86.45A5.16,5.16,0,0,0,221.58,91.71Zm-53.53,46.12h16.73a5.16,5.16,0,0,0,5-5.26V115a5.16,5.16,0,0,0-5-5.26H168.05a5.16,5.16,0,0,0-5,5.26v17.55A5.16,5.16,0,0,0,168.05,137.83Zm53.53,0h16.73a5.16,5.16,0,0,0,5-5.26V115a5.16,5.16,0,0,0-5-5.26H221.58a5.16,5.16,0,0,0-5,5.26v17.55A5.16,5.16,0,0,0,221.58,137.83ZM189.8,178.68V161.13a5.16,5.16,0,0,0-5-5.26H168.05a5.16,5.16,0,0,0-5,5.26v17.55a5.16,5.16,0,0,0,5,5.26h16.73A5.16,5.16,0,0,0,189.8,178.68Zm31.79,5.26h16.73a5.16,5.16,0,0,0,5-5.26V161.13a5.16,5.16,0,0,0-5-5.26H221.58a5.16,5.16,0,0,0-5,5.26v17.55A5.16,5.16,0,0,0,221.58,183.94Zm92.77,83.86v8.73H92.21V267.8a6.12,6.12,0,0,1,6-6.24h9.67V22.7a12.17,12.17,0,0,1,11.9-12.48h167.1a12.17,12.17,0,0,1,11.9,12.48V261.56h9.67A6.12,6.12,0,0,1,314.35,267.8Zm-195.48-3h70.18v-33a6.69,6.69,0,0,1,6.53-6.81h15.75a6.69,6.69,0,0,1,6.53,6.81v33H288v-244l-168.89-.57Z" transform="translate(-7.46 -10.21)"/></svg>