<svg width="16" height="16" viewBox="0 0 16 16" fill="none" xmlns="http://www.w3.org/2000/svg">
<path d="M15 3H11V2C11 0.9 10.1 0 9 0H7C5.9 0 5 0.9 5 2V3H1C0.7 3 0.5 3.2 0.5 3.5C0.5 3.8 0.7 4 1 4H2V13C2 14.65 3.35 16 5 16H11C12.65 16 14 14.65 14 13V4H15C15.3 4 15.5 3.8 15.5 3.5C15.5 3.2 15.3 3 15 3ZM6 2C6 1.45 6.45 1 7 1H9C9.55 1 10 1.45 10 2V3H6V2ZM13 13C13 14.1 12.1 15 11 15H5C3.9 15 3 14.1 3 13V4H13V13ZM6 11.5V7.5C6 7.2 6.2 7 6.5 7C6.8 7 7 7.2 7 7.5V11.5C7 11.8 6.8 12 6.5 12C6.2 12 6 11.8 6 11.5ZM9 11.5V7.5C9 7.2 9.2 7 9.5 7C9.8 7 10 7.2 10 7.5V11.5C10 11.8 9.8 12 9.5 12C9.2 12 9 11.8 9 11.5Z" fill="#2C2C2C"/>
</svg>
