<svg width="20" height="16" viewBox="0 0 20 16" xmlns="http://www.w3.org/2000/svg">
<path d="M16.25 0.5H3.75C1.6875 0.5 0 2.1875 0 4.25V11.75C0 13.8125 1.6875 15.5 3.75 15.5H16.25C18.3125 15.5 20 13.8125 20 11.75V4.25C20 2.1875 18.3125 0.5 16.25 0.5ZM16.25 1.75C16.6875 1.75 17.125 1.875 17.5 2.125L10.4375 9.1875C10.1875 9.4375 9.8125 9.4375 9.5625 9.1875L2.5 2.125C2.875 1.875 3.3125 1.75 3.75 1.75H16.25ZM18.75 11.75C18.75 13.125 17.625 14.25 16.25 14.25H3.75C2.375 14.25 1.25 13.125 1.25 11.75V4.25C1.25 3.8125 1.375 3.375 1.625 3L8.6875 10.0625C9.0625 10.4375 9.5 10.625 10 10.625C10.5 10.625 11 10.4375 11.3125 10.0625L18.375 3C18.625 3.375 18.75 3.8125 18.75 4.25V11.75Z"/>
</svg>
