<svg width="16" height="14" viewBox="0 0 16 14" fill="none" xmlns="http://www.w3.org/2000/svg">
<path d="M10.5 8.10059C8.45 8.10059 6.75 6.40059 6.75 4.35059C6.75 2.30059 8.45 0.600586 10.5 0.600586C12.55 0.600586 14.25 2.30059 14.25 4.35059C14.25 6.40059 12.55 8.10059 10.5 8.10059ZM10.5 1.60059C9 1.60059 7.75 2.85059 7.75 4.35059C7.75 5.85059 9 7.10059 10.5 7.10059C12 7.10059 13.25 5.85059 13.25 4.35059C13.25 2.85059 12 1.60059 10.5 1.60059ZM15.5 13.6506C15.2 13.6506 15 13.4506 15 13.1506C15 11.7506 13.85 10.6006 12.45 10.6006H8.5C7.1 10.6006 5.95 11.7506 5.95 13.1506C5.95 13.4506 5.75 13.6506 5.45 13.6506C5.15 13.6506 4.95 13.4506 4.95 13.1506C4.95 11.2006 6.55 9.60059 8.5 9.60059H12.45C14.4 9.60059 16 11.2006 16 13.1506C16 13.4006 15.8 13.6506 15.5 13.6506ZM5.7 8.10059C3.65 8.10059 1.95 6.40059 1.95 4.35059C1.95 2.30059 3.6 0.600586 5.7 0.600586C6 0.600586 6.2 0.800586 6.2 1.10059C6.2 1.40059 6 1.60059 5.7 1.60059C4.2 1.60059 2.95 2.85059 2.95 4.35059C2.95 5.85059 4.15 7.10059 5.7 7.10059C6 7.10059 6.2 7.30059 6.2 7.60059C6.2 7.90059 5.95 8.10059 5.7 8.10059ZM0.5 13.6506C0.2 13.6506 0 13.4506 0 13.1506C0 11.2006 1.6 9.60059 3.55 9.60059H4.5C4.8 9.60059 5 9.80059 5 10.1006C5 10.4006 4.8 10.6006 4.5 10.6006H3.55C2.15 10.6006 1 11.7506 1 13.1506C1 13.4006 0.8 13.6506 0.5 13.6506Z" fill="#525559"/>
</svg>
