<svg width="14" height="11" viewBox="0 0 14 11" fill="none" xmlns="http://www.w3.org/2000/svg">
<path d="M11.5 0C10.3 0 9.3 0.85 9.05 2H1C0.7 2 0.5 2.2 0.5 2.5C0.5 2.8 0.7 3 1 3H9.05C9.3 4.15 10.3 5 11.5 5C12.9 5 14 3.9 14 2.5C14 1.1 12.9 0 11.5 0ZM11.5 4C10.65 4 10 3.35 10 2.5C10 1.65 10.65 1 11.5 1C12.35 1 13 1.65 13 2.5C13 3.35 12.35 4 11.5 4ZM12.5 8H4.95C4.7 6.85 3.7 6 2.5 6C1.1 6 0 7.1 0 8.5C0 9.9 1.1 11 2.5 11C3.7 11 4.7 10.15 4.95 9H12.5C12.8 9 13 8.8 13 8.5C13 8.2 12.8 8 12.5 8ZM2.5 10C1.65 10 1 9.35 1 8.5C1 7.65 1.65 7 2.5 7C3.35 7 4 7.65 4 8.5C4 9.35 3.35 10 2.5 10Z" fill="#525559"/>
</svg>
