<svg width="12" height="15" viewBox="0 0 12 15" fill="none" xmlns="http://www.w3.org/2000/svg">
<path d="M11.5 13.6006H10V11.4006C10 10.7506 9.7 10.1506 9.15 9.75059L6.75 7.60059L9.15 5.45059C9.7 5.10059 10 4.45059 10 3.80059V1.60059H11.5C11.8 1.60059 12 1.40059 12 1.10059C12 0.800586 11.8 0.600586 11.5 0.600586H0.5C0.2 0.600586 0 0.800586 0 1.10059C0 1.40059 0.2 1.60059 0.5 1.60059H2V3.80059C2 4.45059 2.3 5.05059 2.85 5.45059L5.25 7.60059L2.85 9.75059C2.3 10.1006 2 10.7506 2 11.4006V13.6006H0.5C0.2 13.6006 0 13.8006 0 14.1006C0 14.4006 0.2 14.6006 0.5 14.6006H11.5C11.8 14.6006 12 14.4006 12 14.1006C12 13.8006 11.8 13.6006 11.5 13.6006ZM3.45 4.65059C3.15 4.45059 3 4.15059 3 3.80059V1.60059H9V3.80059C9 4.15059 8.85 4.45059 8.55 4.65059L8.5 4.70059L6 6.95059L3.5 4.70059C3.5 4.65059 3.45 4.65059 3.45 4.65059ZM3 13.6006V11.4006C3 11.0506 3.15 10.7506 3.45 10.5506L3.5 10.5006L6 8.25059L8.5 10.5006L8.55 10.5506C8.85 10.7506 9 11.0506 9 11.4006V13.6006H3Z" fill="#525559"/>
</svg>
