<svg width="20" height="18" viewBox="0 0 20 18" fill="none" xmlns="http://www.w3.org/2000/svg">
<path d="M15.5625 13.6875L14.625 12.75L13 11.125L12.125 10.25L8.75 6.875L7.8125 5.9375L6.5 4.625L5.5625 3.6875L2.3125 0.4375C2.0625 0.1875 1.6875 0.1875 1.4375 0.4375C1.1875 0.6875 1.1875 1.0625 1.4375 1.3125L4.4375 4.3125C2.75 5.375 1.375 6.875 0.4375 8.6875C0.375 8.875 0.375 9.0625 0.4375 9.25C2.25 12.9375 5.9375 15.25 10 15.25C11.5625 15.25 13.0625 14.9375 14.4375 14.3125L17.6875 17.5625C17.8125 17.6875 18 17.75 18.125 17.75C18.25 17.75 18.4375 17.6875 18.5625 17.5625C18.8125 17.3125 18.8125 16.9375 18.5625 16.6875L15.5625 13.6875ZM11.25 11.125C10.875 11.375 10.4375 11.5 10 11.5C8.625 11.5 7.5 10.375 7.5 9C7.5 8.5625 7.625 8.125 7.875 7.75L11.25 11.125ZM10 14C6.5 14 3.375 12.0625 1.75 9C2.625 7.375 3.875 6.125 5.375 5.25L6.9375 6.8125C6.5 7.4375 6.25 8.1875 6.25 9C6.25 11.0625 7.9375 12.75 10 12.75C10.8125 12.75 11.5625 12.5 12.1875 12.0625L13.5 13.375C12.375 13.75 11.1875 14 10 14ZM19.5625 8.75C17.75 5.0625 14.0625 2.75 10 2.75C8.9375 2.75 7.875 2.9375 6.875 3.25L7.875 4.25C8.5625 4.0625 9.25 4 10 4C13.5 4 16.625 5.9375 18.25 9C17.625 10.25 16.75 11.25 15.6875 12.0625L16.5625 12.9375C17.75 12 18.8125 10.75 19.5 9.25C19.625 9.125 19.625 8.875 19.5625 8.75ZM12.5 8.8125L13.625 9.9375C13.6875 9.625 13.75 9.3125 13.75 9C13.75 6.9375 12.0625 5.25 10 5.25C9.6875 5.25 9.3125 5.3125 9.0625 5.375L10.1875 6.5C11.4375 6.625 12.375 7.5625 12.5 8.8125Z" fill="#F96652"/>
</svg>
