<svg width="16" height="16" viewBox="0 0 16 16" fill="none" xmlns="http://www.w3.org/2000/svg">
<path d="M12.1094 5.28665V3.38932C12.3605 3.27191 12.5732 3.08569 12.7227 2.85228C12.8722 2.61887 12.9524 2.34784 12.9541 2.07065V2.02598C12.953 1.6385 12.7987 1.26718 12.5247 0.993122C12.2508 0.719066 11.8796 0.564548 11.4921 0.563316H11.4474C11.06 0.564547 10.6889 0.718974 10.415 0.992886C10.1411 1.2668 9.98664 1.63795 9.98541 2.02532V2.06998C9.98664 2.34556 10.0656 2.6152 10.2133 2.84788C10.3609 3.08057 10.5713 3.26685 10.8201 3.38532L10.8287 3.38932V5.29065C10.1033 5.40149 9.42029 5.70286 8.84941 6.16398L8.85741 6.15732L3.63874 2.09398C3.7381 1.72175 3.70528 1.32659 3.54586 0.975856C3.38645 0.625124 3.11031 0.340544 2.76454 0.170636C2.41877 0.000727514 2.02477 -0.0439887 1.64972 0.0441111C1.27467 0.132211 0.941785 0.347672 0.707826 0.653758C0.473867 0.959845 0.353318 1.33761 0.366733 1.72263C0.380148 2.10766 0.526695 2.47611 0.78139 2.76518C1.03609 3.05424 1.38316 3.24601 1.76343 3.30779C2.14371 3.36957 2.53364 3.29754 2.86674 3.10398L2.85874 3.10798L7.99008 7.10198C7.53646 7.78208 7.29556 8.58182 7.29808 9.39932C7.29698 10.2608 7.56424 11.1013 8.06274 11.804L8.05408 11.7907L6.49274 13.3526C6.36775 13.3123 6.23741 13.291 6.10608 13.2893H6.10474C5.83668 13.2893 5.57465 13.3688 5.35176 13.5177C5.12888 13.6667 4.95516 13.8783 4.85258 14.126C4.75 14.3736 4.72316 14.6462 4.77545 14.9091C4.82775 15.172 4.95683 15.4135 5.14638 15.603C5.33593 15.7926 5.57742 15.9216 5.84033 15.9739C6.10324 16.0262 6.37575 15.9994 6.62341 15.8968C6.87106 15.7942 7.08274 15.6205 7.23166 15.3976C7.38059 15.1747 7.46008 14.9127 7.46008 14.6446C7.45827 14.5098 7.43579 14.376 7.39341 14.248L7.39674 14.2573L8.94141 12.7127C9.44488 13.0968 10.0293 13.3611 10.6503 13.4854C11.2713 13.6097 11.9124 13.5908 12.525 13.43C13.1375 13.2692 13.7054 12.9709 14.1853 12.5576C14.6651 12.1444 15.0445 11.6272 15.2944 11.0453C15.5443 10.4634 15.6583 9.83216 15.6275 9.19961C15.5968 8.56706 15.4222 7.94985 15.117 7.39493C14.8118 6.84001 14.3841 6.36199 13.8664 5.99723C13.3487 5.63248 12.7547 5.3906 12.1294 5.28998L12.1054 5.28665H12.1094ZM11.4667 11.5387C11.0443 11.5375 10.6317 11.4111 10.281 11.1756C9.93034 10.94 9.65732 10.6059 9.49645 10.2152C9.33558 9.82463 9.29407 9.39511 9.37716 8.98092C9.46026 8.56673 9.66422 8.18646 9.96331 7.88812C10.2624 7.58978 10.6432 7.38676 11.0576 7.3047C11.472 7.22264 11.9014 7.26522 12.2916 7.42707C12.6818 7.58891 13.0153 7.86275 13.25 8.21402C13.4846 8.56528 13.6099 8.97821 13.6101 9.40065V9.40198C13.6102 9.68277 13.5549 9.96083 13.4475 10.2203C13.3401 10.4797 13.1826 10.7154 12.9841 10.914C12.7855 11.1125 12.5498 11.27 12.2904 11.3774C12.0309 11.4848 11.7529 11.5401 11.4721 11.54L11.4667 11.5387Z" fill="#525559"/>
</svg>
