<svg width="20" height="20" viewBox="0 0 20 20" >
<path d="M13.75 19.9993H10.55C10.2462 19.9993 10 19.7531 10 19.4493V19.4481C10 18.5412 9.38875 17.7081 8.49875 17.5356C7.30187 17.3031 6.25 18.2181 6.25 19.3743V19.9993H2.5C1.11937 19.9993 0 18.8799 0 17.4993V14.2993C0 13.9956 0.24625 13.7493 0.55 13.7493H1.80125C2.70812 13.7493 3.54125 13.1381 3.71375 12.2481C3.94625 11.0512 3.03125 9.99931 1.875 9.99931H0.55C0.24625 9.99931 0 9.75306 0 9.44931V6.24931C0 4.86868 1.11937 3.74931 2.5 3.74931H5V3.26368C5 1.63243 6.18937 0.173056 7.8125 0.0143057C9.675 -0.167569 11.25 1.29806 11.25 3.12431V3.74931H13.75C15.1306 3.74931 16.25 4.86868 16.25 6.24931V8.74931H16.7356C18.3669 8.74931 19.8263 9.93868 19.985 11.5618C20.1669 13.4243 18.7013 14.9993 16.875 14.9993H16.25V17.4993C16.25 18.8799 15.1306 19.9993 13.75 19.9993ZM11.1869 18.7493H13.75C14.4406 18.7493 15 18.1899 15 17.4993V14.3743C15 14.0293 15.28 13.7493 15.625 13.7493H16.8013C17.7081 13.7493 18.5413 13.1381 18.7137 12.2481C18.9462 11.0512 18.0312 9.99931 16.875 9.99931H15.625C15.28 9.99931 15 9.71931 15 9.37431V6.24931C15 5.55868 14.4406 4.99931 13.75 4.99931H10.625C10.28 4.99931 10 4.71931 10 4.37431V3.19806C10 2.29118 9.38875 1.45806 8.49875 1.28556C7.30187 1.05306 6.25 1.96806 6.25 3.12431V4.37431C6.25 4.71931 5.97 4.99931 5.625 4.99931H2.5C1.80938 4.99931 1.25 5.55868 1.25 6.24931V8.74931H1.73563C3.36687 8.74931 4.82625 9.93868 4.985 11.5618C5.16687 13.4243 3.70125 14.9993 1.875 14.9993H1.25V17.4993C1.25 18.1899 1.80938 18.7493 2.5 18.7493H5.06312C5.35313 17.3249 6.61625 16.2493 8.125 16.2493C9.63375 16.2493 10.8969 17.3249 11.1869 18.7493Z" />
</svg>
