<svg width="20" height="17" viewBox="0 0 20 17" xmlns="http://www.w3.org/2000/svg">
<path d="M18.9501 6.50005L11.1001 0.900051C10.4501 0.400051 9.5501 0.400052 8.9001 0.850052L1.1001 6.20005C0.750104 6.45005 0.650103 6.90005 0.900103 7.25005C1.1501 7.60005 1.6001 7.70005 1.9501 7.45005L3.0001 6.70005V12.8501C3.0001 15.1501 4.8501 17.0001 7.1501 17.0001H12.8501C15.1501 17.0001 17.0001 15.1501 17.0001 12.8501V6.95005L18.0501 7.70005C18.2001 7.80005 18.3501 7.85005 18.5001 7.85005C18.7501 7.85005 18.9501 7.75005 19.1001 7.55005C19.3501 7.20005 19.2501 6.75005 18.9501 6.50005ZM15.5001 12.8501C15.5001 14.3001 14.3001 15.5001 12.8501 15.5001H7.1501C5.7001 15.5001 4.5001 14.3001 4.5001 12.8501V5.65005L9.8001 2.05005C9.9001 1.95005 10.0501 1.95005 10.2001 2.05005L15.5001 5.85005V12.8501Z"/>
</svg>
