<svg width="43" height="25" viewBox="0 0 43 25" fill="none" xmlns="http://www.w3.org/2000/svg">
<path d="M42.2132 5.70537C42.209 5.63295 42.1935 5.56411 42.1857 5.49229C42.1738 5.36958 42.1469 5.24628 42.1194 5.12358C42.1038 5.05475 42.0883 4.98591 42.0686 4.91409C42.0375 4.79498 42.0058 4.67168 41.9669 4.55256C41.9436 4.48732 41.9197 4.41849 41.8964 4.35385C41.8492 4.22396 41.7984 4.10066 41.744 3.97796C41.7207 3.92349 41.6967 3.86962 41.6734 3.81874C41.5874 3.64516 41.4977 3.47518 41.3997 3.31237C41.3841 3.28364 41.3644 3.26149 41.3488 3.23636C41.2586 3.0951 41.1689 2.96162 41.0709 2.82755C41.032 2.77667 40.989 2.72639 40.946 2.67192C40.87 2.57376 40.7864 2.475 40.7027 2.37983C40.6979 2.37444 40.6925 2.36906 40.6877 2.36367C40.6483 2.32357 40.6112 2.28346 40.5747 2.24097C40.567 2.23199 40.5586 2.22301 40.5496 2.21463C40.4564 2.12485 40.3625 2.03507 40.2693 1.94169C40.2185 1.89441 40.1677 1.84772 40.1127 1.80044C40.0033 1.70287 39.8855 1.6089 39.7684 1.51852C39.7253 1.48979 39.6865 1.45687 39.6434 1.42455C39.4832 1.30544 39.3147 1.19291 39.1425 1.08816C39.1031 1.06661 39.0642 1.04507 39.0254 1.02292C38.8885 0.943313 38.7474 0.867298 38.6027 0.794873C38.5364 0.762552 38.4694 0.733223 38.4031 0.700901C38.2817 0.646433 38.1604 0.592564 38.0355 0.545278C37.9572 0.512957 37.883 0.483628 37.8047 0.458489C37.6798 0.411802 37.5543 0.371699 37.4293 0.335786C37.351 0.310647 37.2727 0.284909 37.1908 0.263362C37.1633 0.256179 37.14 0.248996 37.1125 0.241814L37.1083 0.245405C36.4897 0.0903809 35.8399 0 35.1668 0H30.1773C28.4677 0 26.8986 0.542286 25.6744 1.4425C25.3259 1.69928 25.0055 1.98479 24.7156 2.29603C24.5709 2.45166 24.4341 2.61446 24.3085 2.78026C23.7962 3.45303 23.428 4.21199 23.2403 5.0326C23.1465 5.445 23.0957 5.86758 23.0957 6.30153V15.8508C23.0957 16.2847 23.1465 16.7079 23.2403 17.1197C23.428 17.9403 23.7956 18.6999 24.3085 19.372C24.4335 19.5384 24.5709 19.7012 24.7156 19.8563C25.0049 20.1675 25.3259 20.453 25.6744 20.7098C26.8986 21.61 28.4677 22.1523 30.1773 22.1523H33.0448C33.3706 22.1523 33.5672 21.792 33.3921 21.5172L32.3149 19.8311C32.1392 19.5564 31.814 19.3864 31.4697 19.3864H30.1773C29.5592 19.3864 29.0153 19.2128 28.5616 18.9201C28.5108 18.8878 28.4636 18.8549 28.4169 18.8226C28.2878 18.7286 28.1665 18.6274 28.0571 18.5155C27.9788 18.4395 27.9082 18.3599 27.8383 18.2767C27.7014 18.1103 27.5801 17.9331 27.4743 17.7416C27.4193 17.6476 27.3726 17.5501 27.3254 17.4489C27.2393 17.2502 27.1652 17.0437 27.1102 16.8306C27.0827 16.7223 27.0594 16.6175 27.0397 16.5086C27.0044 16.2919 26.9847 16.071 26.9847 15.8508V6.30212C26.9847 6.08186 27.0044 5.86099 27.0397 5.64432C27.0594 5.53598 27.0827 5.43123 27.1102 5.3223C27.1652 5.10922 27.2393 4.90272 27.3254 4.704C27.372 4.60284 27.4193 4.50528 27.4743 4.41131C27.5801 4.21977 27.7014 4.0426 27.8383 3.8762C27.9088 3.79301 27.9794 3.7134 28.0571 3.63738C28.2095 3.48535 28.3781 3.34828 28.5616 3.23217C29.0153 2.93947 29.5592 2.7659 30.1773 2.7659H35.1668C35.2762 2.7659 35.382 2.77308 35.4878 2.78385C35.5817 2.79463 35.6719 2.80899 35.7616 2.82695C35.7813 2.83054 35.8046 2.83413 35.8244 2.83772C35.9027 2.85568 35.981 2.87723 36.0551 2.89937C36.076 2.90775 36.0999 2.91374 36.122 2.91972C36.1352 2.92331 36.1477 2.92691 36.1609 2.93169C36.2243 2.95444 36.284 2.97778 36.3414 3.00412C36.3767 3.01848 36.412 3.03285 36.443 3.04721C36.5016 3.07594 36.5602 3.10527 36.6194 3.13759C36.6546 3.15914 36.6899 3.1771 36.7252 3.19925C36.7802 3.23157 36.8268 3.26449 36.8776 3.3004C36.9165 3.32554 36.9517 3.35128 36.987 3.38001C37.0336 3.41233 37.0773 3.44884 37.1203 3.48475C37.1592 3.51707 37.1944 3.55359 37.2297 3.58591C37.2691 3.62182 37.308 3.65833 37.3433 3.69784C37.3785 3.73375 37.4108 3.76667 37.4431 3.80258C37.4497 3.80977 37.4562 3.81755 37.4622 3.82533C37.4903 3.86124 37.5184 3.89715 37.5471 3.93307C37.5824 3.97616 37.6176 4.01986 37.6487 4.06714C37.6762 4.10665 37.7073 4.14675 37.7306 4.18625C37.7659 4.23354 37.7934 4.28382 37.8245 4.33469C37.8478 4.3742 37.8717 4.4143 37.895 4.4574C37.9225 4.50827 37.95 4.56214 37.9769 4.6202C37.9966 4.65971 38.0157 4.69981 38.0319 4.7429C38.0594 4.79737 38.0827 4.85842 38.1024 4.91648C38.118 4.95599 38.1335 4.99609 38.1496 5.03919C38.1694 5.10084 38.1885 5.16189 38.2046 5.22354C38.2166 5.26663 38.2321 5.30674 38.2399 5.34624C38.2596 5.41148 38.271 5.47613 38.2829 5.54137C38.2907 5.58087 38.3027 5.62098 38.3063 5.66048C38.3182 5.7329 38.326 5.80533 38.3337 5.87715C38.3379 5.90948 38.3457 5.94599 38.3457 5.97831C38.3577 6.08665 38.3612 6.19139 38.3612 6.30033V15.8496C38.3612 15.9579 38.3571 16.0627 38.3457 16.1716C38.3457 16.2039 38.3379 16.2404 38.3337 16.2728C38.326 16.3452 38.3182 16.4176 38.3063 16.4894C38.3021 16.5289 38.2907 16.569 38.2829 16.6085C38.271 16.6738 38.2596 16.7384 38.2399 16.8037C38.2321 16.8432 38.2166 16.8833 38.2046 16.9264C38.1891 16.988 38.1694 17.0491 38.1496 17.1107C38.1341 17.1544 38.1186 17.1939 38.1024 17.2334C38.0827 17.2915 38.0594 17.3525 38.0319 17.407C38.0163 17.4501 37.9966 17.4902 37.9769 17.5297C37.9494 17.5878 37.9219 17.6416 37.895 17.6925C37.8717 17.7356 37.8478 17.7757 37.8245 17.8152C37.7934 17.8661 37.7659 17.9164 37.7306 17.9637C37.7073 18.0032 37.6756 18.0433 37.6487 18.0828C37.6176 18.1301 37.5824 18.1731 37.5471 18.2168C37.519 18.2528 37.4909 18.2887 37.4622 18.3246C37.4562 18.3324 37.4497 18.3401 37.4431 18.3473C37.4114 18.3826 37.3791 18.4162 37.3433 18.4521C37.308 18.4916 37.2691 18.5281 37.2297 18.564C37.1944 18.5963 37.1592 18.6328 37.1203 18.6652C37.0773 18.7011 37.0342 18.7376 36.987 18.7699C36.9517 18.7986 36.9165 18.8244 36.8776 18.8495C36.8268 18.8854 36.7796 18.9183 36.7252 18.9507C36.6899 18.9722 36.6546 18.9902 36.6194 19.0123C36.6074 19.0195 36.5919 19.0267 36.5805 19.0339C36.5333 19.059 36.4903 19.0811 36.4436 19.1027C36.4126 19.1171 36.3773 19.1314 36.342 19.1458C36.2852 19.1721 36.2249 19.1955 36.1615 19.2182C36.1489 19.223 36.1358 19.2266 36.1232 19.2302C36.1011 19.2362 36.0778 19.2422 36.0563 19.2505C35.9822 19.2721 35.9039 19.2936 35.8256 19.3122C35.8058 19.3158 35.7825 19.3194 35.7628 19.323C35.6725 19.3409 35.5829 19.3553 35.489 19.3661C35.3832 19.3768 35.4083 19.7635 35.2989 19.7635L34.9492 19.9879C34.8189 20.0717 34.746 20.2214 34.7615 20.3758L34.8907 21.6854C34.8984 21.762 34.9271 21.8351 34.9737 21.8961L35.0413 21.9847C35.122 22.0901 35.2481 22.1511 35.3808 22.1463C35.4304 22.1445 35.4794 22.1421 35.5279 22.1391C36.0718 22.114 36.5997 22.0308 37.1083 21.9039L37.1125 21.9075C37.14 21.9003 37.1633 21.8895 37.1908 21.8859C37.2727 21.8644 37.351 21.8387 37.4293 21.8135C37.5543 21.7776 37.6798 21.7375 37.8047 21.6908C37.883 21.6657 37.9572 21.6364 38.0355 21.604C38.0863 21.5861 38.1371 21.5645 38.1843 21.5424C38.2584 21.5137 38.3332 21.4807 38.4031 21.4484C38.4694 21.4161 38.5364 21.3868 38.6027 21.3544C38.736 21.2892 38.8652 21.2168 38.9901 21.1449C39.002 21.1414 39.0134 21.1342 39.0254 21.127C39.0642 21.1054 39.1037 21.0839 39.1425 21.0617C39.3147 20.957 39.4826 20.8451 39.6434 20.7254C39.6865 20.693 39.7259 20.6601 39.7684 20.6314C39.8855 20.541 40.0033 20.447 40.1127 20.3495C40.1677 20.3022 40.2185 20.2555 40.2693 20.2082C40.3625 20.1148 40.4564 20.0251 40.5496 19.9353C40.5586 19.9269 40.5664 19.9179 40.5747 19.9089C40.6112 19.8664 40.6483 19.8263 40.6877 19.7862C40.6931 19.7809 40.6979 19.7755 40.7027 19.7701C40.7864 19.6749 40.8694 19.5767 40.946 19.478C40.989 19.4235 41.032 19.3732 41.0709 19.3224C41.1689 19.1883 41.2586 19.0548 41.3488 18.9136C41.3644 18.8884 41.3841 18.8663 41.3997 18.8375C41.4977 18.6747 41.5874 18.5047 41.6734 18.3312C41.6967 18.2803 41.7201 18.2264 41.744 18.172C41.799 18.0492 41.8498 17.9259 41.8964 17.7961C41.9197 17.7308 41.9436 17.662 41.9669 17.5973C42.0058 17.4782 42.0375 17.3549 42.0686 17.2358C42.0883 17.1634 42.1038 17.0946 42.1194 17.0263C42.1469 16.9036 42.1744 16.7803 42.1857 16.6576C42.1935 16.5852 42.209 16.5164 42.2132 16.4445C42.2365 16.2458 42.2485 16.0507 42.2485 15.8478V6.30212C42.2485 6.09981 42.2365 5.90469 42.2132 5.70537Z" fill="url(#paint0_linear_7132_1845)"/>
<path d="M17.9253 21.2795L4.52413 0.181849C4.4518 0.0693214 4.32029 0.000488281 4.17743 0.000488281H0.403173C0.0917409 0.000488281 -0.101932 0.311734 0.0564738 0.557738L12.0756 19.3414C12.0756 19.3414 12.5718 20.4164 13.6549 21.152C14.8175 21.9409 16.8756 21.9433 17.9253 21.2795Z" fill="url(#paint1_linear_7132_1845)"/>
<path d="M20.1195 1.80822C20.1195 0.809837 19.2378 0 18.1499 0C17.0619 0 16.1803 0.809837 16.1803 1.80822C16.1803 1.85131 16.1826 1.89381 16.1856 1.93631C16.1826 1.95546 16.1803 1.97461 16.1803 1.99437V19.9568C16.1803 19.9568 16.2083 20.7954 15.6638 21.7531L16.1803 21.7603C18.2126 21.6603 20.1195 20.0412 20.1195 18.0439V1.99496C20.1195 1.97521 20.1171 1.95546 20.1141 1.9369C20.1177 1.89381 20.1195 1.85131 20.1195 1.80822Z" fill="url(#paint2_linear_7132_1845)"/>
<path d="M39.4257 21.573C39.3229 21.4227 38.9265 20.8523 38.0867 19.493C37.7543 18.9549 37.8667 17.7381 37.8948 17.6956C37.2534 18.895 35.4637 17.9056 34.6077 19.2715C34.2443 19.8509 34.279 20.6446 34.4661 21.1953C34.5635 21.4826 34.9281 22.2002 35.1176 22.4762C35.3543 22.8209 35.279 22.7282 35.9497 23.7188C35.9808 23.7726 36.0137 23.8253 36.0489 23.878C36.0818 23.9265 36.1165 23.9725 36.1523 24.018C36.1541 24.0204 36.1559 24.0228 36.1571 24.0252C36.1768 24.0539 36.1984 24.0797 36.2217 24.1024C36.9605 24.9667 38.1638 25.2061 39.0258 24.6178C39.9577 23.9815 40.137 22.6186 39.4257 21.573Z" fill="url(#paint3_linear_7132_1845)"/>
<defs>
<linearGradient id="paint0_linear_7132_1845" x1="26.2545" y1="1.05334" x2="39.1139" y2="21.0858" gradientUnits="userSpaceOnUse">
<stop stop-color="#FC563A"/>
<stop offset="0.8062" stop-color="#D43400"/>
</linearGradient>
<linearGradient id="paint1_linear_7132_1845" x1="1.52338" y1="-0.800544" x2="16.3473" y2="22.2923" gradientUnits="userSpaceOnUse">
<stop stop-color="#353238"/>
<stop offset="0.5755" stop-color="#333036"/>
<stop offset="0.8304" stop-color="#2C292F"/>
<stop offset="0.8634" stop-color="#2A282D"/>
</linearGradient>
<linearGradient id="paint2_linear_7132_1845" x1="12.5525" y1="3.19491" x2="22.3606" y2="18.4742" gradientUnits="userSpaceOnUse">
<stop stop-color="#59555C"/>
<stop offset="0.8062" stop-color="#38343B"/>
</linearGradient>
<linearGradient id="paint3_linear_7132_1845" x1="35.4971" y1="18.511" x2="39.3032" y2="24.4402" gradientUnits="userSpaceOnUse">
<stop stop-color="#FC563A"/>
<stop offset="1" stop-color="#D43400"/>
</linearGradient>
</defs>
</svg>
