<svg width="17" height="17" viewBox="0 0 17 17" fill="none" xmlns="http://www.w3.org/2000/svg">
<path d="M6 4.75V2.875C6 2.37772 6.17559 1.90081 6.48816 1.54917C6.80072 1.19754 7.22464 1 7.66667 1H14.3333C14.7754 1 15.1993 1.19754 15.5118 1.54917C15.8244 1.90081 16 2.37772 16 2.875V14.125C16 14.6223 15.8244 15.0992 15.5118 15.4508C15.1993 15.8025 14.7754 16 14.3333 16H8C7.07958 16 6 15.1605 6 14.125V12.25" stroke="#F96652" stroke-linecap="round" stroke-linejoin="round"/>
<path d="M9.75 12.4284L13.5 8.49986L9.75 4.57129" stroke="#F96652" stroke-linecap="round" stroke-linejoin="round"/>
<path d="M1 8.85693H12.875" stroke="#F96652" stroke-linecap="round" stroke-linejoin="round"/>
</svg>
