<svg width="122" height="26" viewBox="0 0 122 26" fill="none" xmlns="http://www.w3.org/2000/svg">
<path d="M42.2132 5.90801C42.2091 5.83558 42.1935 5.76675 42.1857 5.69492C42.1738 5.57222 42.1469 5.44892 42.1194 5.32622C42.1038 5.25738 42.0883 5.18855 42.0686 5.11672C42.0375 4.99761 42.0058 4.87431 41.967 4.7552C41.9436 4.68996 41.9197 4.62113 41.8964 4.55648C41.8492 4.4266 41.7984 4.3033 41.744 4.18059C41.7207 4.12613 41.6968 4.07226 41.6735 4.02138C41.5874 3.8478 41.4977 3.67781 41.3997 3.51501C41.3841 3.48628 41.3644 3.46413 41.3489 3.43899C41.2586 3.29773 41.169 3.16426 41.0709 3.03018C41.0321 2.97931 40.989 2.92903 40.946 2.87456C40.8701 2.7764 40.7864 2.67764 40.7027 2.58247C40.6979 2.57708 40.6925 2.57169 40.6878 2.56631C40.6483 2.5262 40.6112 2.4861 40.5748 2.4436C40.567 2.43463 40.5586 2.42565 40.5497 2.41727C40.4564 2.32749 40.3626 2.2377 40.2693 2.14433C40.2185 2.09704 40.1677 2.05036 40.1127 2.00307C40.0033 1.90551 39.8856 1.81154 39.7684 1.72116C39.7254 1.69243 39.6865 1.65951 39.6435 1.62718C39.4833 1.50807 39.3147 1.39555 39.1425 1.2908C39.1031 1.26925 39.0642 1.2477 39.0254 1.22556C38.8885 1.14595 38.7474 1.06993 38.6028 0.99751C38.5364 0.965188 38.4695 0.935859 38.4031 0.903538C38.2818 0.84907 38.1604 0.7952 38.0355 0.747915C37.9572 0.715593 37.8831 0.686264 37.8048 0.661125C37.6798 0.614439 37.5543 0.574336 37.4294 0.538423C37.3511 0.513284 37.2728 0.487546 37.1909 0.465998C37.1634 0.458816 37.1401 0.451633 37.1126 0.444451L37.1084 0.448042C36.4897 0.293018 35.8399 0.202637 35.1669 0.202637H30.1774C28.4678 0.202637 26.8986 0.744922 25.6744 1.64514C25.3259 1.90192 25.0055 2.18743 24.7156 2.49867C24.571 2.65429 24.4341 2.8171 24.3086 2.9829C23.7963 3.65567 23.4281 4.41463 23.2404 5.23524C23.1465 5.64764 23.0957 6.07021 23.0957 6.50416V16.0534C23.0957 16.4874 23.1465 16.9105 23.2404 17.3223C23.4281 18.143 23.7957 18.9025 24.3086 19.5747C24.4335 19.7411 24.571 19.9039 24.7156 20.0589C25.0049 20.3702 25.3259 20.6557 25.6744 20.9124C26.8986 21.8127 28.4678 22.3549 30.1774 22.3549H33.0448C33.3706 22.3549 33.5672 21.9946 33.3921 21.7199L32.3149 20.0338C32.1392 19.759 31.814 19.589 31.4697 19.589H30.1774C29.5593 19.589 29.0153 19.4155 28.5616 19.1228C28.5108 19.0905 28.4636 19.0575 28.417 19.0252C28.2878 18.9312 28.1665 18.8301 28.0571 18.7182C27.9788 18.6421 27.9083 18.5625 27.8383 18.4793C27.7014 18.3129 27.5801 18.1358 27.4743 17.9442C27.4193 17.8503 27.3727 17.7527 27.3254 17.6515C27.2394 17.4528 27.1652 17.2463 27.1103 17.0332C27.0828 16.9249 27.0594 16.8202 27.0397 16.7112C27.0044 16.4945 26.9847 16.2737 26.9847 16.0534V6.50476C26.9847 6.28449 27.0044 6.06363 27.0397 5.84696C27.0594 5.73862 27.0828 5.63387 27.1103 5.52494C27.1652 5.31185 27.2394 5.10535 27.3254 4.90663C27.3721 4.80548 27.4193 4.70792 27.4743 4.61394C27.5801 4.42241 27.7014 4.24524 27.8383 4.07884C27.9089 3.99564 27.9794 3.91604 28.0571 3.84002C28.2095 3.68799 28.3781 3.55092 28.5616 3.4348C29.0153 3.14211 29.5593 2.96853 30.1774 2.96853H35.1669C35.2762 2.96853 35.382 2.97571 35.4878 2.98649C35.5817 2.99726 35.672 3.01163 35.7616 3.02958C35.7814 3.03318 35.8047 3.03677 35.8244 3.04036C35.9027 3.05831 35.981 3.07986 36.0551 3.10201C36.076 3.11039 36.1 3.11637 36.1221 3.12236C36.1352 3.12595 36.1478 3.12954 36.1609 3.13433C36.2243 3.15708 36.2841 3.18042 36.3415 3.20675C36.3767 3.22112 36.412 3.23549 36.4431 3.24985C36.5016 3.27858 36.5602 3.30791 36.6194 3.34023C36.6547 3.36178 36.6899 3.37974 36.7252 3.40188C36.7802 3.4342 36.8268 3.46712 36.8776 3.50304C36.9165 3.52818 36.9518 3.55391 36.987 3.58264C37.0337 3.61497 37.0773 3.65148 37.1203 3.68739C37.1592 3.71971 37.1945 3.75622 37.2297 3.78854C37.2692 3.82446 37.308 3.86097 37.3433 3.90047C37.3786 3.93639 37.4108 3.96931 37.4431 4.00522C37.4497 4.0124 37.4563 4.02018 37.4622 4.02796C37.4903 4.06388 37.5184 4.09979 37.5471 4.1357C37.5824 4.1788 37.6177 4.22249 37.6488 4.26978C37.6762 4.30928 37.7073 4.34939 37.7306 4.38889C37.7659 4.43617 37.7934 4.48645 37.8245 4.53733C37.8478 4.57683 37.8717 4.61694 37.895 4.66003C37.9225 4.71091 37.95 4.76478 37.9769 4.82284C37.9966 4.86234 38.0158 4.90244 38.0319 4.94554C38.0594 5.00001 38.0827 5.06106 38.1024 5.11912C38.118 5.15862 38.1335 5.19873 38.1497 5.24182C38.1694 5.30347 38.1885 5.36452 38.2047 5.42617C38.2166 5.46927 38.2322 5.50937 38.2399 5.54888C38.2597 5.61412 38.271 5.67876 38.283 5.744C38.2907 5.78351 38.3027 5.82361 38.3063 5.86312C38.3182 5.93554 38.326 6.00797 38.3338 6.07979C38.338 6.11211 38.3457 6.14862 38.3457 6.18095C38.3577 6.28928 38.3613 6.39403 38.3613 6.50296V16.0522C38.3613 16.1606 38.3571 16.2653 38.3457 16.3742C38.3457 16.4066 38.338 16.4431 38.3338 16.4754C38.326 16.5478 38.3182 16.6202 38.3063 16.6921C38.3021 16.7316 38.2907 16.7717 38.283 16.8112C38.271 16.8764 38.2597 16.9411 38.2399 17.0063C38.2322 17.0458 38.2166 17.0859 38.2047 17.129C38.1891 17.1907 38.1694 17.2517 38.1497 17.3134C38.1341 17.3571 38.1186 17.3966 38.1024 17.4361C38.0827 17.4941 38.0594 17.5552 38.0319 17.6096C38.0164 17.6527 37.9966 17.6928 37.9769 17.7323C37.9494 17.7904 37.9219 17.8443 37.895 17.8952C37.8717 17.9382 37.8478 17.9783 37.8245 18.0179C37.7934 18.0687 37.7659 18.119 37.7306 18.1663C37.7073 18.2058 37.6756 18.2459 37.6488 18.2854C37.6177 18.3327 37.5824 18.3758 37.5471 18.4195C37.519 18.4554 37.4909 18.4913 37.4622 18.5272C37.4563 18.535 37.4497 18.5428 37.4431 18.55C37.4114 18.5853 37.3792 18.6188 37.3433 18.6547C37.308 18.6942 37.2692 18.7307 37.2297 18.7666C37.1945 18.799 37.1592 18.8355 37.1203 18.8678C37.0773 18.9037 37.0343 18.9402 36.987 18.9725C36.9518 19.0013 36.9165 19.027 36.8776 19.0521C36.8268 19.0881 36.7796 19.121 36.7252 19.1533C36.6899 19.1748 36.6547 19.1928 36.6194 19.215C36.6075 19.2221 36.5919 19.2293 36.5806 19.2365C36.5333 19.2616 36.4903 19.2838 36.4437 19.3053C36.4126 19.3197 36.3773 19.3341 36.342 19.3484C36.2853 19.3748 36.2249 19.3981 36.1615 19.4209C36.149 19.4256 36.1358 19.4292 36.1233 19.4328C36.1012 19.4388 36.0778 19.4448 36.0563 19.4532C35.9822 19.4747 35.9039 19.4963 35.8256 19.5148C35.8059 19.5184 35.7825 19.522 35.7628 19.5256C35.6726 19.5436 35.5829 19.5579 35.489 19.5687C35.3832 19.5795 35.4083 19.9661 35.299 19.9661L34.9493 20.1906C34.819 20.2744 34.746 20.424 34.7616 20.5784L34.8907 21.8881C34.8985 21.9647 34.9272 22.0377 34.9738 22.0988L35.0413 22.1873C35.122 22.2927 35.2481 22.3537 35.3809 22.349C35.4305 22.3472 35.4795 22.3448 35.5279 22.3418C36.0719 22.3166 36.5997 22.2334 37.1084 22.1065L37.1126 22.1101C37.1401 22.103 37.1634 22.0922 37.1909 22.0886C37.2728 22.067 37.3511 22.0413 37.4294 22.0162C37.5543 21.9802 37.6798 21.9401 37.8048 21.8935C37.8831 21.8683 37.9572 21.839 38.0355 21.8067C38.0863 21.7887 38.1371 21.7672 38.1843 21.745C38.2585 21.7163 38.3332 21.6834 38.4031 21.651C38.4695 21.6187 38.5364 21.5894 38.6028 21.5571C38.7361 21.4918 38.8652 21.4194 38.9901 21.3476C39.0021 21.344 39.0134 21.3368 39.0254 21.3296C39.0642 21.3081 39.1037 21.2865 39.1425 21.2644C39.3147 21.1596 39.4827 21.0477 39.6435 20.928C39.6865 20.8957 39.726 20.8628 39.7684 20.834C39.8856 20.7436 40.0033 20.6497 40.1127 20.5521C40.1677 20.5048 40.2185 20.4581 40.2693 20.4109C40.3626 20.3175 40.4564 20.2277 40.5497 20.1379C40.5586 20.1295 40.5664 20.1206 40.5748 20.1116C40.6112 20.0691 40.6483 20.029 40.6878 19.9889C40.6931 19.9835 40.6979 19.9781 40.7027 19.9727C40.7864 19.8775 40.8695 19.7794 40.946 19.6806C40.989 19.6262 41.0321 19.5759 41.0709 19.525C41.169 19.3909 41.2586 19.2574 41.3489 19.1162C41.3644 19.0911 41.3841 19.0689 41.3997 19.0402C41.4977 18.8774 41.5874 18.7074 41.6735 18.5338C41.6968 18.4829 41.7201 18.4291 41.744 18.3746C41.799 18.2519 41.8498 18.1286 41.8964 17.9987C41.9197 17.9335 41.9436 17.8646 41.967 17.8C42.0058 17.6809 42.0375 17.5576 42.0686 17.4385C42.0883 17.366 42.1038 17.2972 42.1194 17.229C42.1469 17.1063 42.1744 16.983 42.1857 16.8603C42.1935 16.7878 42.2091 16.719 42.2132 16.6472C42.2366 16.4485 42.2485 16.2533 42.2485 16.0504V6.50476C42.2485 6.30245 42.2366 6.10732 42.2132 5.90801Z" fill="url(#paint0_linear)"/>
<path d="M17.9253 21.4821L4.52413 0.384485C4.4518 0.271958 4.32029 0.203125 4.17743 0.203125H0.403173C0.0917409 0.203125 -0.101932 0.514371 0.0564738 0.760374L12.0756 19.544C12.0756 19.544 12.5718 20.619 13.6549 21.3547C14.8175 22.1435 16.8756 22.1459 17.9253 21.4821Z" fill="url(#paint1_linear)"/>
<path d="M20.1193 2.01085C20.1193 1.01247 19.2376 0.202637 18.1497 0.202637C17.0617 0.202637 16.18 1.01247 16.18 2.01085C16.18 2.05395 16.1824 2.09645 16.1854 2.13894C16.1824 2.1581 16.18 2.17725 16.18 2.197V20.1595C16.18 20.1595 16.2081 20.998 15.6636 21.9557L16.18 21.9629C18.2124 21.8629 20.1193 20.2439 20.1193 18.2465V2.1976C20.1193 2.17785 20.1169 2.1581 20.1139 2.13954C20.1175 2.09645 20.1193 2.05395 20.1193 2.01085Z" fill="url(#paint2_linear)"/>
<path d="M39.4258 21.7753C39.323 21.6251 38.9267 21.0547 38.0868 19.6954C37.7545 19.1573 37.8669 17.9404 37.895 17.8979C37.2536 19.0974 35.4639 18.108 34.6079 19.4739C34.2444 20.0533 34.2791 20.847 34.4662 21.3977C34.5636 21.685 34.9283 22.4026 35.1178 22.6786C35.3545 23.0233 35.2792 22.9305 35.9499 23.9211C35.9809 23.975 36.0138 24.0277 36.0491 24.0804C36.082 24.1288 36.1166 24.1749 36.1525 24.2204C36.1543 24.2228 36.1561 24.2252 36.1573 24.2276C36.177 24.2563 36.1985 24.2821 36.2218 24.3048C36.9607 25.1691 38.164 25.4085 39.0259 24.8202C39.9578 24.1839 40.1372 22.821 39.4258 21.7753Z" fill="url(#paint3_linear)"/>
<path d="M59.6278 9.19541C59.6074 9.08767 59.4694 8.95898 58.9242 8.95898C58.3617 8.95898 58.2165 9.08947 58.1788 9.16967L55.4835 15.2898L52.7757 9.16728C52.7392 9.08947 52.5921 8.95958 52.0189 8.95958C51.5257 8.95958 51.2759 9.04637 51.2759 9.21696V9.2427L54.7656 16.7305C54.7859 16.7724 54.9174 16.9801 55.4841 16.9801C56.0388 16.9801 56.1697 16.7724 56.1913 16.7276L59.6188 9.26604L59.6343 9.23252L59.6278 9.19541Z" fill="#38343B"/>
<path d="M60.9111 11.1255C60.3073 11.1255 60.2422 11.3206 60.2422 11.405V16.6782C60.2422 16.762 60.3073 16.9578 60.9111 16.9578C61.5256 16.9578 61.5919 16.7626 61.5919 16.6782V11.405C61.5919 11.3206 61.5256 11.1255 60.9111 11.1255Z" fill="#38343B"/>
<path d="M65.6805 13.545C64.6685 13.3978 64.0958 13.2864 64.0958 12.7178C64.0958 12.4102 64.2184 12.0013 65.2764 12.0013C66.1832 12.0013 66.6297 12.3078 66.6423 12.9387L66.6429 12.9794L66.6692 13.0117C66.702 13.0518 66.8455 13.1829 67.3106 13.1829C67.7912 13.1829 67.9149 13.056 67.946 12.9806L67.9555 12.9566L67.9544 12.9315C67.9017 11.7529 66.9286 11.1035 65.2142 11.1035C63.204 11.1035 62.7819 12.0169 62.7819 12.783C62.7819 14.0759 64.0313 14.2716 65.2429 14.4614C66.1939 14.5883 66.7774 14.696 66.7774 15.2772C66.7774 15.9769 65.9447 16.0811 65.4485 16.0811C64.5214 16.0811 63.9834 15.7393 63.9721 15.1437L63.9715 15.1072L63.95 15.0767C63.9201 15.0348 63.785 14.8995 63.3038 14.8995C62.8238 14.8995 62.7024 15.0342 62.6725 15.0922L62.6582 15.121L62.66 15.1521C62.7246 16.2959 63.7766 16.9789 65.4742 16.9789C67.1211 16.9789 68.1038 16.3306 68.1038 15.2443C68.1032 13.8987 66.5861 13.6773 65.6805 13.545Z" fill="#38343B"/>
<path d="M69.8759 11.1255C69.2722 11.1255 69.207 11.3206 69.207 11.405V16.6782C69.207 16.762 69.2722 16.9578 69.8759 16.9578C70.491 16.9578 70.5574 16.7626 70.5574 16.6782V11.405C70.5574 11.3206 70.491 11.1255 69.8759 11.1255Z" fill="#38343B"/>
<path d="M75.37 15.9064H74.7531C74.1995 15.9064 74.1774 15.518 74.1762 15.4749V12.1763H75.3323C75.364 12.1763 75.6437 12.1625 75.6437 11.6783C75.6437 11.194 75.3646 11.1803 75.3323 11.1803H74.1762V9.9281C74.1762 9.69287 73.6729 9.69287 73.5073 9.69287C73.3418 9.69287 72.8384 9.69287 72.8384 9.9281V11.1803H71.8432C71.8115 11.1803 71.5317 11.194 71.5317 11.6783C71.5317 12.1625 71.8115 12.1763 71.8432 12.1763H72.8384V15.5946C72.8384 15.6077 72.8606 16.9024 74.7531 16.9024H75.37C75.4339 16.9024 75.6437 16.8665 75.6437 16.4044C75.6437 15.9429 75.4339 15.9064 75.37 15.9064Z" fill="#38343B"/>
<path d="M79.1682 11.1035C77.4018 11.1035 76.1196 12.2192 76.1196 13.7569V14.3255C76.1196 15.8877 77.3731 16.9789 79.1682 16.9789C80.9704 16.9789 82.2293 15.8877 82.2293 14.3255V13.7569C82.2293 12.2198 80.9418 11.1035 79.1682 11.1035ZM77.4694 13.6473C77.4694 12.7208 78.1359 12.1216 79.1682 12.1216C80.2077 12.1216 80.879 12.7208 80.879 13.6473V14.435C80.879 15.376 80.2232 15.9607 79.1682 15.9607C78.1365 15.9607 77.4694 15.3616 77.4694 14.435V13.6473Z" fill="#38343B"/>
<path d="M87.0974 11.2432L87.0789 11.2378C87.061 11.2342 86.6198 11.1475 85.5319 11.1475C83.2251 11.1475 83.1982 12.6474 83.1982 12.663V16.6781C83.1982 16.7618 83.2634 16.9576 83.8671 16.9576C84.4822 16.9576 84.5486 16.7624 84.5486 16.6781V12.663C84.5486 12.6576 84.5623 12.1434 85.7292 12.1434C86.6228 12.1434 87.0161 12.2165 87.0197 12.2171L87.0484 12.2201C87.0789 12.2201 87.3473 12.2069 87.3473 11.7442C87.3473 11.3486 87.1393 11.2576 87.0974 11.2432Z" fill="#38343B"/>
<path d="M93.7717 16.7109C93.4142 16.7983 93.0197 16.8534 92.6126 16.8534C90.5282 16.8534 89.0117 15.5186 89.0117 13.4285V12.4654C89.0117 10.3753 90.5659 9.04053 92.6126 9.04053C94.6725 9.04053 96.2135 10.3753 96.2135 12.4654V13.4285C96.2135 14.7525 95.5966 15.7808 94.6223 16.35L95.6827 17.9697C95.6827 17.9697 95.7443 18.1008 95.3498 18.3198C95.0909 18.4623 94.8566 18.3964 94.8566 18.3964L93.7717 16.7109ZM90.1337 13.5596C90.1337 15.1026 91.1696 15.9777 92.6126 15.9777C94.0682 15.9777 95.1041 15.1026 95.1041 13.5596V12.3343C95.1041 10.7913 94.0311 9.90543 92.6126 9.90543C91.2067 9.90543 90.1337 10.7919 90.1337 12.3343V13.5596Z" fill="#EA3E2D"/>
<path d="M97.1261 11.4042C97.1261 11.4042 97.1261 11.251 97.6563 11.251C98.1865 11.251 98.1865 11.4042 98.1865 11.4042V14.807C98.1865 14.807 98.1865 16.0873 99.6785 16.0873H101.492V11.4042C101.492 11.4042 101.492 11.251 102.022 11.251C102.552 11.251 102.552 11.4042 102.552 11.4042V16.6014C102.552 16.6014 102.318 16.8313 99.6785 16.8313C97.1255 16.8313 97.1255 14.807 97.1255 14.807V11.4042H97.1261Z" fill="#EA3E2D"/>
<path d="M108.175 15.124C108.175 15.124 108.175 15.0037 108.644 15.0037C109.137 15.0037 109.125 15.124 109.125 15.124C109.088 16.0541 107.929 16.8526 106.436 16.8526C104.66 16.8526 103.464 15.8351 103.464 14.3249V13.7557C103.464 12.2456 104.66 11.228 106.326 11.228C107.929 11.228 109.138 12.2785 109.138 13.7557V14.1603C109.138 14.1603 109.138 14.3028 108.694 14.3028H104.537V14.4997C104.537 15.5501 105.314 16.1409 106.436 16.1409C107.46 16.1415 108.175 15.6274 108.175 15.124ZM106.375 11.9732C105.339 11.9732 104.537 12.5861 104.537 13.6366V13.6803H108.188C108.151 12.5963 107.337 11.9732 106.375 11.9732Z" fill="#EA3E2D"/>
<path d="M109.988 11.4042C109.988 11.4042 109.988 11.251 110.519 11.251C111.049 11.251 111.049 11.4042 111.049 11.4042V14.807C111.049 14.807 111.049 16.0873 112.541 16.0873H114.354V11.4042C114.354 11.4042 114.354 11.251 114.884 11.251C115.414 11.251 115.414 11.4042 115.414 11.4042V16.6014C115.414 16.6014 115.18 16.8313 112.541 16.8313C109.988 16.8313 109.988 14.807 109.988 14.807V11.4042H109.988Z" fill="#EA3E2D"/>
<path d="M121.038 15.124C121.038 15.124 121.038 15.0037 121.507 15.0037C122 15.0037 121.987 15.124 121.987 15.124C121.95 16.0541 120.791 16.8526 119.299 16.8526C117.523 16.8526 116.327 15.8351 116.327 14.3249V13.7557C116.327 12.2456 117.523 11.228 119.188 11.228C120.791 11.228 122 12.2785 122 13.7557V14.1603C122 14.1603 122 14.3028 121.556 14.3028H117.4V14.4997C117.4 15.5501 118.177 16.1409 119.299 16.1409C120.323 16.1415 121.038 15.6274 121.038 15.124ZM119.238 11.9732C118.202 11.9732 117.4 12.5861 117.4 13.6366V13.6803H121.051C121.014 12.5963 120.2 11.9732 119.238 11.9732Z" fill="#EA3E2D"/>
<defs>
<linearGradient id="paint0_linear" x1="26.2545" y1="1.25598" x2="39.1139" y2="21.2885" gradientUnits="userSpaceOnUse">
<stop stop-color="#FC563A"/>
<stop offset="0.8062" stop-color="#D43400"/>
</linearGradient>
<linearGradient id="paint1_linear" x1="1.52338" y1="-0.597907" x2="16.3473" y2="22.4949" gradientUnits="userSpaceOnUse">
<stop stop-color="#353238"/>
<stop offset="0.5755" stop-color="#333036"/>
<stop offset="0.8304" stop-color="#2C292F"/>
<stop offset="0.8634" stop-color="#2A282D"/>
</linearGradient>
<linearGradient id="paint2_linear" x1="12.5523" y1="3.39754" x2="22.3604" y2="18.6768" gradientUnits="userSpaceOnUse">
<stop stop-color="#59555C"/>
<stop offset="0.8062" stop-color="#38343B"/>
</linearGradient>
<linearGradient id="paint3_linear" x1="35.4972" y1="18.7134" x2="39.3034" y2="24.6426" gradientUnits="userSpaceOnUse">
<stop stop-color="#FC563A"/>
<stop offset="1" stop-color="#D43400"/>
</linearGradient>
</defs>
</svg>
