<svg width="16" height="13" viewBox="0 0 16 13" fill="none" xmlns="http://www.w3.org/2000/svg">
<path d="M13 0.558594H3C1.35 0.558594 0 1.90859 0 3.55859V9.55859C0 11.2086 1.35 12.5586 3 12.5586H13C14.65 12.5586 16 11.2086 16 9.55859V3.55859C16 1.90859 14.65 0.558594 13 0.558594ZM13 1.55859C13.35 1.55859 13.7 1.65859 14 1.85859L8.35 7.50859C8.15 7.70859 7.85 7.70859 7.65 7.50859L2 1.85859C2.3 1.65859 2.65 1.55859 3 1.55859H13ZM15 9.55859C15 10.6586 14.1 11.5586 13 11.5586H3C1.9 11.5586 1 10.6586 1 9.55859V3.55859C1 3.20859 1.1 2.85859 1.3 2.55859L6.95 8.20859C7.25 8.50859 7.6 8.65859 8 8.65859C8.4 8.65859 8.8 8.50859 9.05 8.20859L14.7 2.55859C14.9 2.85859 15 3.20859 15 3.55859V9.55859Z" fill="#525559"/>
</svg>
