<svg width="18" height="6" viewBox="0 0 18 6" fill="none" xmlns="http://www.w3.org/2000/svg">
<path fill-rule="evenodd" clip-rule="evenodd" d="M4.66683 2.99996C4.66683 1.80829 3.69183 0.833292 2.50016 0.833292C1.3085 0.833292 0.333496 1.80829 0.333496 2.99996C0.333496 4.19163 1.3085 5.16663 2.50016 5.16663C3.69183 5.16663 4.66683 4.19163 4.66683 2.99996ZM6.8335 2.99996C6.8335 4.19163 7.8085 5.16663 9.00016 5.16663C10.1918 5.16663 11.1668 4.19163 11.1668 2.99996C11.1668 1.80829 10.1918 0.833292 9.00016 0.833292C7.8085 0.833292 6.8335 1.80829 6.8335 2.99996ZM13.3335 2.99996C13.3335 4.19163 14.3085 5.16663 15.5002 5.16663C16.6918 5.16663 17.6668 4.19163 17.6668 2.99996C17.6668 1.80829 16.6918 0.833292 15.5002 0.833292C14.3085 0.833292 13.3335 1.80829 13.3335 2.99996Z" fill="#85929B"/>
</svg>
