<svg width="13" height="14" viewBox="0 0 13 14" fill="none" xmlns="http://www.w3.org/2000/svg">
<path d="M12.4347 4.75L9.23469 0.65C9.05217 0.445937 8.82873 0.282595 8.5789 0.170604C8.32908 0.058613 8.05847 0.000483944 7.78469 0H3.43469C2.77165 0 2.13577 0.263392 1.66693 0.732233C1.19808 1.20107 0.934692 1.83696 0.934692 2.5V11.5C0.934692 12.163 1.19808 12.7989 1.66693 13.2678C2.13577 13.7366 2.77165 14 3.43469 14H10.4347C11.0977 14 11.7336 13.7366 12.2025 13.2678C12.6713 12.7989 12.9347 12.163 12.9347 11.5V6.1C12.9281 5.60591 12.7515 5.12917 12.4347 4.75ZM11.3847 5H8.93469C8.66948 5 8.41512 4.89464 8.22759 4.70711C8.04005 4.51957 7.93469 4.26522 7.93469 4V1.05C8.14365 1.05824 8.34108 1.14798 8.48469 1.3L11.3847 5ZM11.9347 11.5C11.9417 11.6989 11.9077 11.897 11.8347 12.0822C11.7618 12.2673 11.6516 12.4355 11.5109 12.5762C11.3702 12.7169 11.202 12.8271 11.0169 12.9001C10.8317 12.973 10.6336 13.007 10.4347 13H3.43469C3.23583 13.007 3.03765 12.973 2.85251 12.9001C2.66736 12.8271 2.4992 12.7169 2.35849 12.5762C2.21779 12.4355 2.10755 12.2673 2.03464 12.0822C1.96173 11.897 1.92771 11.6989 1.93469 11.5V2.5C1.92771 2.30114 1.96173 2.10296 2.03464 1.91781C2.10755 1.73267 2.21779 1.56451 2.35849 1.4238C2.4992 1.2831 2.66736 1.17286 2.85251 1.09995C3.03765 1.02704 3.23583 0.993016 3.43469 1H6.93469V4C6.93469 4.53043 7.14541 5.03914 7.52048 5.41421C7.89555 5.78929 8.40426 6 8.93469 6H11.9347V11.5Z" fill="#525559"/>
</svg>
