<svg width="16" height="18" viewBox="0 0 16 18" fill="none" xmlns="http://www.w3.org/2000/svg">
<path d="M14.875 6.1875L10.875 1.0625C10.6469 0.807421 10.3675 0.603243 10.0553 0.463255C9.74298 0.323266 9.40472 0.250605 9.0625 0.25H3.625C2.7962 0.25 2.00134 0.57924 1.41529 1.16529C0.82924 1.75134 0.5 2.5462 0.5 3.375V14.625C0.5 15.4538 0.82924 16.2487 1.41529 16.8347C2.00134 17.4208 2.7962 17.75 3.625 17.75H12.375C13.2038 17.75 13.9987 17.4208 14.5847 16.8347C15.1708 16.2487 15.5 15.4538 15.5 14.625V7.875C15.4918 7.25739 15.2711 6.66147 14.875 6.1875ZM13.5625 6.5H10.5C10.1685 6.5 9.85054 6.3683 9.61612 6.13388C9.3817 5.89946 9.25 5.58152 9.25 5.25V1.5625C9.5112 1.5728 9.75799 1.68498 9.9375 1.875L13.5625 6.5ZM14.25 14.625C14.2587 14.8736 14.2162 15.1213 14.1251 15.3527C14.0339 15.5842 13.8961 15.7944 13.7202 15.9702C13.5444 16.1461 13.3342 16.2839 13.1027 16.3751C12.8713 16.4662 12.6236 16.5087 12.375 16.5H3.625C3.37642 16.5087 3.1287 16.4662 2.89727 16.3751C2.66583 16.2839 2.45563 16.1461 2.27975 15.9702C2.10387 15.7944 1.96607 15.5842 1.87494 15.3527C1.7838 15.1213 1.74127 14.8736 1.75 14.625V3.375C1.74127 3.12642 1.7838 2.8787 1.87494 2.64727C1.96607 2.41583 2.10387 2.20563 2.27975 2.02975C2.45563 1.85387 2.66583 1.71607 2.89727 1.62494C3.1287 1.5338 3.37642 1.49127 3.625 1.5H8V5.25C8 5.91304 8.26339 6.54893 8.73223 7.01777C9.20107 7.48661 9.83696 7.75 10.5 7.75H14.25V14.625Z" fill="#F96652"/>
</svg>
