<svg width="20" height="19" viewBox="0 0 20 19" xmlns="http://www.w3.org/2000/svg">
<path d="M16.9986 16.4544C16.636 15.5028 16.7321 14.4629 17.2235 13.5731L18.3507 11.5316C20.2584 8.07678 19.1028 3.61349 15.7292 1.68236C14.0541 0.757418 12.0846 0.489529 10.2447 0.976331C8.37598 1.51548 6.79945 2.76244 5.87451 4.4375L4.66052 6.63601C4.16915 7.52589 3.34026 8.16109 2.34182 8.36113C1.55822 8.5432 0.967619 9.24167 0.905936 10.0956C0.87862 10.7636 1.25209 11.4479 1.88024 11.7948L14.2861 18.6451C14.9143 18.992 15.6924 18.9435 16.2432 18.5646C16.9854 18.0864 17.233 17.2669 16.9986 16.4544ZM15.6135 17.6021C15.4221 17.7013 15.126 17.7427 14.9166 17.6271L2.51067 10.7768C2.30129 10.6612 2.09737 10.4119 2.16064 10.1737C2.20047 9.85412 2.39734 9.6213 2.64109 9.55098C3.91219 9.22826 5.04263 8.41805 5.70743 7.2141L6.92142 5.01558C7.70184 3.60225 9.00025 2.61156 10.544 2.16618C12.0877 1.72079 13.6854 1.91995 15.0464 2.67146C15.0988 2.70037 15.0988 2.70037 15.1511 2.72927C17.9489 4.34245 18.9225 8.02214 17.2749 11.0058L16.1477 13.0473C15.5118 14.1989 15.3993 15.6396 15.8033 16.8872C15.9259 17.1599 15.8338 17.4505 15.6135 17.6021ZM10.1993 17.1398C9.9954 16.8906 9.59461 16.8742 9.3454 17.0781C8.67901 17.6664 7.73837 17.7618 6.95319 17.3282C6.16801 16.8947 5.74765 16.0478 5.89059 15.1704C5.93042 14.8509 5.70306 14.5204 5.38352 14.4806C5.06398 14.4408 4.73352 14.6681 4.69369 14.9877C4.47656 16.3705 5.14225 17.7627 6.3462 18.4275C7.55015 19.0923 9.08297 18.9141 10.1376 17.9937C10.4157 17.7375 10.4321 17.3367 10.1993 17.1398Z" />
</svg>
