<svg width="26" height="26" viewBox="0 0 26 26" fill="none" xmlns="http://www.w3.org/2000/svg">
<path d="M22.1511 21.7706C21.6585 20.4776 21.789 19.0647 22.4566 17.8555L23.9884 15.0815C26.5805 10.3872 25.0102 4.32249 20.4262 1.69848C18.1502 0.441681 15.4739 0.0776749 12.974 0.739139C10.4347 1.47173 8.29256 3.16609 7.03576 5.44215L5.3862 8.42947C4.71853 9.63863 3.59224 10.5017 2.23556 10.7736C1.17082 11.0209 0.36831 11.97 0.284495 13.1303C0.247378 14.038 0.754848 14.9679 1.60837 15.4392L18.4654 24.7474C19.319 25.2187 20.3763 25.1528 21.1247 24.6379C22.1331 23.9882 22.4696 22.8746 22.1511 21.7706ZM20.269 23.3301C20.0089 23.4649 19.6066 23.5212 19.3221 23.3641L2.465 14.0559C2.18049 13.8988 1.90341 13.5602 1.98938 13.2364C2.0435 12.8022 2.311 12.4859 2.64221 12.3903C4.36937 11.9518 5.90541 10.8509 6.80874 9.21498L8.45829 6.22765C9.51872 4.30722 11.283 2.96108 13.3806 2.35589C15.4783 1.75071 17.6492 2.02132 19.4985 3.04247C19.5696 3.08175 19.5696 3.08175 19.6407 3.12102C23.4423 5.313 24.7652 10.3129 22.5266 14.3672L20.9948 17.1411C20.1308 18.7059 19.978 20.6635 20.5269 22.3588C20.6936 22.7292 20.5683 23.1241 20.269 23.3301ZM12.9123 22.702C12.6352 22.3633 12.0906 22.3411 11.752 22.6182C10.8465 23.4176 9.56837 23.5471 8.50146 22.958C7.43456 22.3689 6.86339 21.2181 7.0576 20.026C7.11173 19.5918 6.80279 19.1428 6.3686 19.0887C5.93442 19.0345 5.48539 19.3435 5.43127 19.7777C5.13623 21.6566 6.04077 23.5483 7.67669 24.4517C9.3126 25.355 11.3954 25.1129 12.8285 23.8623C13.2064 23.5141 13.2286 22.9695 12.9123 22.702Z" fill="#6F7782"/>
</svg>
