<svg width="674" height="399" viewBox="0 0 674 399" fill="none" xmlns="http://www.w3.org/2000/svg">
<g clip-path="url(#clip0_1_1384)">
<rect width="674" height="399" rx="26" fill="#FFF5F5"/>
<circle cx="545" cy="79" r="35" fill="#FFEBEB"/>
<rect x="402" y="332.884" width="153.995" height="145.626" rx="11" transform="rotate(-44.9964 402 332.884)" fill="#FFEBEB"/>
<rect x="462.805" y="331.189" width="65.6019" height="62.0365" rx="11" transform="rotate(-44.9964 462.805 331.189)" fill="#FDDDDD"/>
<circle cx="147.5" cy="61.5" r="79.5" fill="#FFEBEB"/>
<rect x="294" y="155" width="54" height="13" rx="6" fill="#FFEBEB"/>
<rect y="253" width="54" height="13" rx="6" fill="#FFEBEB"/>
<rect x="354" y="155" width="54" height="13" rx="6" fill="#FFEBEB"/>
<rect x="60" y="253" width="54" height="13" rx="6" fill="#FFEBEB"/>
<rect x="414" y="155" width="54" height="13" rx="6" fill="#FFEBEB"/>
<rect x="120" y="253" width="54" height="13" rx="6" fill="#FFEBEB"/>
<rect x="403" y="171" width="54" height="13" rx="6" fill="#FFEBEB"/>
<rect x="109" y="269" width="54" height="13" rx="6" fill="#FFEBEB"/>
<rect x="343" y="171" width="54" height="13" rx="6" fill="#FFEBEB"/>
<rect x="49" y="269" width="54" height="13" rx="6" fill="#FFEBEB"/>
</g>
<defs>
<clipPath id="clip0_1_1384">
<rect width="674" height="399" fill="white"/>
</clipPath>
</defs>
</svg>
