<svg width="15" height="9" viewBox="0 0 15 9" fill="none" xmlns="http://www.w3.org/2000/svg">
<path d="M4 0C2.349 0 1 1.30167 1 2.89474C1.00061 3.3506 1.11278 3.79987 1.32739 4.20598C1.542 4.61209 1.85298 4.96356 2.235 5.23175C0.915 5.86377 0 7.17123 0 8.68421H1C1 7.07956 2.337 5.78947 4 5.78947C5.663 5.78947 7 7.07956 7 8.68421H8C8 7.07956 9.337 5.78947 11 5.78947C12.663 5.78947 14 7.07956 14 8.68421H15C15 7.17123 14.085 5.86377 12.765 5.23175C13.1471 4.96361 13.4581 4.61216 13.6727 4.20604C13.8873 3.79991 13.9995 3.35061 14 2.89474C14 1.30167 12.651 0 11 0C9.349 0 8 1.30167 8 2.89474C8.00061 3.3506 8.11278 3.79987 8.32739 4.20598C8.542 4.61209 8.85298 4.96356 9.235 5.23175C8.50408 5.57774 7.89912 6.12952 7.5 6.81421C7.10088 6.12952 6.49592 5.57774 5.765 5.23175C6.14708 4.96361 6.4581 4.61216 6.67272 4.20604C6.88733 3.79991 6.99947 3.35061 7 2.89474C7 1.30167 5.651 0 4 0ZM4 0.964912C5.11 0.964912 6 1.82368 6 2.89474C6 3.96579 5.11 4.82456 4 4.82456C2.89 4.82456 2 3.96579 2 2.89474C2 1.82368 2.89 0.964912 4 0.964912ZM11 0.964912C12.11 0.964912 13 1.82368 13 2.89474C13 3.96579 12.11 4.82456 11 4.82456C9.89 4.82456 9 3.96579 9 2.89474C9 1.82368 9.89 0.964912 11 0.964912Z" fill="#F96652"/>
</svg>
