<svg width="31" height="31" viewBox="0 0 31 31" fill="none" xmlns="http://www.w3.org/2000/svg">
<path d="M0 17.7143L12.8276 23.25L13.3621 20.4821L16.569 17.1607L21.3793 16.0536L2.02541 14.3929L0 17.7143Z" fill="#37EC54"/>
<g clip-path="url(#clip0)">
<path d="M30.0647 14.5313L26.1897 10.5179C25.1876 9.47991 23.4505 9.47991 22.3815 10.5179L13.2285 20.067C12.694 20.6205 12.4268 21.3125 12.4268 22.0045C12.4268 22.6964 12.694 23.4576 13.2285 23.942L13.3621 24.0804L10.2889 27.2634C9.888 27.6786 9.82119 28.2321 10.0216 28.7857C10.222 29.3393 10.6897 29.6161 11.2242 29.6161H14.4311C14.9656 29.6161 15.5001 29.4085 15.8341 28.9933L16.9699 27.817L17.1035 27.9554C17.638 28.5089 18.3061 28.7857 18.9742 28.7857C19.6423 28.7857 20.3104 28.5089 20.8449 27.9554L30.0647 18.4063C31.0669 17.3683 31.0669 15.5692 30.0647 14.5313ZM14.8988 28.0246C14.7652 28.1629 14.5647 28.2321 14.4311 28.2321H11.2242L14.2975 25.0491L16.0345 26.8482L14.8988 28.0246ZM18.0389 26.9866L17.9052 26.8482L14.2975 23.1116L14.1639 22.9732C13.9634 22.6964 13.763 22.3504 13.763 22.0045C13.763 21.6585 13.8966 21.3125 14.1639 21.0357L14.9656 20.2054L20.7113 26.1563L19.9095 26.9866C19.3751 27.5402 18.5733 27.5402 18.0389 26.9866ZM29.1294 17.4375L21.6466 25.1875L15.9009 19.2366L23.3837 11.4866C23.6509 11.279 23.985 11.0714 24.319 11.0714C24.6531 11.0714 24.9871 11.2098 25.2544 11.4866L29.1294 15.5C29.6639 16.0536 29.6639 16.8839 29.1294 17.4375Z" fill="#525559"/>
</g>
<path d="M0 0H21.3793C24.3312 0 26.7241 2.47842 26.7241 5.53571V17.7143H0V0Z" fill="url(#paint0_linear)"/>
<path d="M8.17541 8.64679C8.43196 8.73979 8.63293 8.88593 8.77831 9.08521C8.92369 9.28007 8.99638 9.517 8.99638 9.796C8.99638 10.2034 8.83817 10.5179 8.52176 10.7393C8.20534 10.9607 7.74783 11.0714 7.14921 11.0714H4.72479V6.42143H7.02093C7.5939 6.42143 8.03003 6.53214 8.32934 6.75357C8.62865 6.97057 8.77831 7.26507 8.77831 7.63707C8.77831 7.8585 8.72486 8.05779 8.61796 8.23493C8.51534 8.40764 8.36783 8.54493 8.17541 8.64679ZM5.9819 7.37136V8.26814H6.85417C7.28176 8.26814 7.49555 8.11757 7.49555 7.81643C7.49555 7.51971 7.28176 7.37136 6.85417 7.37136H5.9819ZM7.04659 10.1215C7.49128 10.1215 7.71362 9.96429 7.71362 9.64986C7.71362 9.33543 7.49128 9.17821 7.04659 9.17821H5.9819V10.1215H7.04659Z" fill="#2C2C2C"/>
<path d="M13.2587 10.0551V11.0714H9.65414V6.42143H13.1753V7.43779H10.9112V8.22164H12.9059V9.20479H10.9112V10.0551H13.2587Z" fill="#2C2C2C"/>
<path d="M14.9191 7.46436H13.5401V6.42143H17.5615V7.46436H16.189V11.0714H14.9191V7.46436Z" fill="#2C2C2C"/>
<path d="M20.8172 10.168H18.9188L18.566 11.0714H17.2704L19.2523 6.42143H20.503L22.4912 11.0714H21.17L20.8172 10.168ZM20.4452 9.19814L19.868 7.71014L19.2908 9.19814H20.4452Z" fill="#2C2C2C"/>
<defs>
<linearGradient id="paint0_linear" x1="3.34052" y1="2.53061" x2="27.3681" y2="11.2529" gradientUnits="userSpaceOnUse">
<stop stop-color="#B9FF83"/>
<stop offset="1" stop-color="#FEF4CF"/>
</linearGradient>
<clipPath id="clip0">
<rect width="21.3793" height="22.1429" fill="white" transform="translate(9.62073 8.85714)"/>
</clipPath>
</defs>
</svg>
