<svg width="12" height="16" viewBox="0 0 12 16" fill="none" xmlns="http://www.w3.org/2000/svg">
<path d="M6 10C5.60444 10 5.21776 9.8827 4.88886 9.66294C4.55996 9.44318 4.30362 9.13082 4.15224 8.76537C4.00087 8.39991 3.96126 7.99778 4.03843 7.60982C4.1156 7.22186 4.30608 6.86549 4.58579 6.58579C4.86549 6.30608 5.22186 6.1156 5.60982 6.03843C5.99778 5.96126 6.39991 6.00087 6.76537 6.15224C7.13082 6.30362 7.44318 6.55996 7.66294 6.88886C7.8827 7.21776 8 7.60444 8 8C8 8.53043 7.78929 9.03914 7.41421 9.41421C7.03914 9.78929 6.53043 10 6 10ZM6 7C5.80222 7 5.60888 7.05865 5.44443 7.16853C5.27998 7.27841 5.15181 7.43459 5.07612 7.61732C5.00043 7.80004 4.98063 8.00111 5.01921 8.19509C5.0578 8.38907 5.15304 8.56725 5.29289 8.70711C5.43275 8.84696 5.61093 8.9422 5.80491 8.98079C5.99889 9.01937 6.19996 8.99957 6.38268 8.92388C6.56541 8.84819 6.72159 8.72002 6.83147 8.55557C6.94135 8.39112 7 8.19778 7 8C7 7.73478 6.89464 7.48043 6.70711 7.29289C6.51957 7.10536 6.26522 7 6 7ZM9.987 8.742C10.0913 5.8488 9.46001 2.43124 6.50742 0.333232C6.20366 0.117389 5.79634 0.117389 5.49258 0.333232C2.53999 2.43124 1.90872 5.8488 2.013 8.742L0.517237 9.67676C0.199621 9.87525 0.0195486 10.2346 0.0506522 10.6078L0.423587 15.083C0.466778 15.6013 0.900044 16 1.42013 16H2.38197C2.76074 16 3.107 15.786 3.27639 15.4472L4 14H8L8.72361 15.4472C8.893 15.786 9.23926 16 9.61803 16H10.5799C11.1 16 11.5332 15.6013 11.5764 15.083L11.9493 10.6078C11.9805 10.2346 11.8004 9.87525 11.4828 9.67676L9.987 8.742ZM6 1.2C6.97486 1.91819 7.73869 2.88528 8.2115 4H3.7885C4.26131 2.88528 5.02514 1.91819 6 1.2ZM1.88006 15C1.62002 15 1.40339 14.8007 1.38179 14.5415L1.07236 10.8288C1.05679 10.642 1.14706 10.4621 1.30619 10.363L2.09 9.8745C2.22768 11.2465 2.50769 12.6004 2.9255 13.9145L2.52026 14.7239C2.43552 14.8931 2.26246 15 2.07317 15H1.88006ZM3.6955 13C3.2985 11.5665 2.533 8.074 3.428 5H8.572C9.467 8.0745 8.701 11.5675 8.3045 13H3.6955ZM10.6182 14.5415C10.5966 14.8007 10.38 15 10.1199 15H9.92702C9.73763 15 9.5645 14.893 9.4798 14.7236L9.0745 13.913C9.49231 12.5989 9.77231 11.245 9.91 9.873L10.6938 10.3615C10.8529 10.4606 10.9432 10.6405 10.9276 10.8273L10.6182 14.5415ZM7 15.5C7 15.2239 6.77614 15 6.5 15H5.5C5.22386 15 5 15.2239 5 15.5C5 15.7761 5.22386 16 5.5 16H6.5C6.77614 16 7 15.7761 7 15.5Z" fill="#F96652"/>
</svg>
