<svg width="14" height="14" viewBox="0 0 14 14" fill="none" xmlns="http://www.w3.org/2000/svg">
<path d="M13.5 13.5C13.6952 13.3048 13.6952 12.9882 13.5 12.793L9.7255 9.0185C10.521 8.065 11 6.8385 11 5.5C11 2.4625 8.5375 0 5.5 0C2.4625 0 0 2.4625 0 5.5C0 8.5375 2.4625 11 5.5 11C6.8385 11 8.065 10.521 9.0185 9.7255L12.793 13.5C12.9882 13.6952 13.3048 13.6952 13.5 13.5ZM1 5.5C1 3.0185 3.0185 1 5.5 1C7.9815 1 10 3.0185 10 5.5C10 7.9815 7.9815 10 5.5 10C3.0185 10 1 7.9815 1 5.5Z" fill="#6F7782"/>
</svg>
