<svg width="24" height="26" viewBox="0 0 24 26" fill="none" xmlns="http://www.w3.org/2000/svg">
<path d="M11.9999 17.0625C9.72495 17.0625 7.93745 15.275 7.93745 13C7.93745 10.725 9.72495 8.9375 11.9999 8.9375C14.2749 8.9375 16.0624 10.725 16.0624 13C16.0624 15.275 14.2749 17.0625 11.9999 17.0625ZM11.9999 10.5625C10.6187 10.5625 9.56245 11.6187 9.56245 13C9.56245 14.3813 10.6187 15.4375 11.9999 15.4375C13.3812 15.4375 14.4374 14.3813 14.4374 13C14.4374 11.6187 13.3812 10.5625 11.9999 10.5625ZM12.0812 26H11.9999C10.6999 26 9.56245 25.2688 9.07495 24.05L8.09995 21.775C7.77495 21.125 7.12495 20.7188 6.47495 20.8L3.87495 21.125C2.57495 21.2875 1.3562 20.6375 0.706198 19.5L0.624948 19.4187C-0.0250515 18.2812 0.0561986 16.9 0.787449 15.925L2.24995 13.975C2.6562 13.4063 2.6562 12.675 2.24995 12.1062L0.787449 10.1562C0.0561986 9.1 -0.0250515 7.71875 0.624948 6.6625L0.706198 6.58125C1.43745 5.3625 2.6562 4.7125 3.87495 4.875L6.31245 5.11875C7.0437 5.2 7.6937 4.79375 7.93745 4.14375L8.91245 1.95C9.4812 0.73125 10.6999 0 11.9187 0H11.9999C13.2999 0 14.4374 0.73125 15.0062 1.95L15.9812 4.14375C16.3062 4.79375 16.9562 5.2 17.6062 5.11875L20.1249 4.875C21.4249 4.7125 22.6437 5.3625 23.2937 6.5C23.9437 7.6375 23.8624 9.01875 23.1312 9.99375L21.6687 11.9437C21.2624 12.5125 21.2624 13.2437 21.6687 13.8125L23.1312 15.8438C23.8624 16.9 23.9437 18.2812 23.2937 19.3375L23.2124 19.5C22.5624 20.6375 21.3437 21.2062 20.0437 21.125L17.6062 20.8813C16.8749 20.8 16.2249 21.2062 15.9812 21.8562L15.0062 24.1313C14.5187 25.2688 13.2999 26 12.0812 26ZM6.47495 19.2563C7.77495 19.2563 8.91245 19.9875 9.39995 21.2063L10.3749 23.4812C10.6187 24.05 11.1874 24.4563 11.8374 24.4563H11.9187C12.5687 24.4563 13.1374 24.05 13.3812 23.4812L14.3562 21.2063C14.9249 19.9062 16.2249 19.175 17.6874 19.3375L20.1249 19.5813C20.7749 19.6625 21.3437 19.3375 21.6687 18.7688L21.7499 18.6875C22.0749 18.1187 22.0749 17.4688 21.6687 16.9L20.2062 14.8687C19.3937 13.7312 19.3937 12.1875 20.2062 11.05L21.6687 9.1C22.0749 8.6125 22.0749 7.88125 21.7499 7.3125L21.6687 7.23125C21.3437 6.6625 20.7749 6.3375 20.1249 6.41875L17.6874 6.6625C16.3062 6.825 15.0062 6.0125 14.4374 4.79375L13.4624 2.6C13.2187 2.03125 12.6499 1.625 11.9999 1.625H11.9187C11.2687 1.625 10.6999 2.03125 10.4562 2.6L9.4812 4.79375C8.91245 6.09375 7.61245 6.825 6.2312 6.6625L3.71245 6.5C3.06245 6.41875 2.4937 6.74375 2.1687 7.3125L2.08745 7.39375C1.8437 7.88125 1.8437 8.6125 2.24995 9.1L3.71245 11.05C4.52495 12.1875 4.52495 13.7312 3.71245 14.8687L2.24995 16.9C1.8437 17.3875 1.8437 18.1187 2.1687 18.6875L2.24995 18.7688C2.57495 19.3375 3.1437 19.6625 3.7937 19.5813L6.2312 19.3375C6.31245 19.2562 6.3937 19.2563 6.47495 19.2563Z" fill="#525559"/>
</svg>
