<svg width="16" height="17" viewBox="0 0 16 17" fill="none" xmlns="http://www.w3.org/2000/svg">
<path d="M8 0.929688C3.6 0.929688 0 4.52969 0 8.92969C0 13.3297 3.6 16.9297 8 16.9297C12.4 16.9297 16 13.3297 16 8.92969C16 4.52969 12.4 0.929688 8 0.929688ZM14.3 5.92969H11.25C11 4.37969 10.55 3.07969 9.95 2.22969C11.9 2.77969 13.45 4.12969 14.3 5.92969ZM10.5 8.92969C10.5 9.62969 10.45 10.2797 10.4 10.9297H5.6C5.55 10.2797 5.5 9.62969 5.5 8.92969C5.5 8.22969 5.55 7.57969 5.6 6.92969H10.4C10.45 7.57969 10.5 8.22969 10.5 8.92969ZM8 15.9297C7.15 15.9297 6.2 14.3797 5.75 11.9297H10.25C9.8 14.3797 8.85 15.9297 8 15.9297ZM5.75 5.92969C6.2 3.47969 7.15 1.92969 8 1.92969C8.85 1.92969 9.8 3.47969 10.25 5.92969H5.75ZM6.05 2.22969C5.45 3.07969 5 4.37969 4.75 5.92969H1.7C2.55 4.12969 4.1 2.77969 6.05 2.22969ZM1.3 6.92969H4.6C4.55 7.57969 4.5 8.22969 4.5 8.92969C4.5 9.62969 4.55 10.2797 4.6 10.9297H1.3C1.1 10.2797 1 9.62969 1 8.92969C1 8.22969 1.1 7.57969 1.3 6.92969ZM1.7 11.9297H4.75C5 13.4797 5.45 14.7797 6.05 15.6297C4.1 15.0797 2.55 13.7297 1.7 11.9297ZM9.95 15.6297C10.55 14.7297 11 13.4797 11.25 11.9297H14.3C13.45 13.7297 11.9 15.0797 9.95 15.6297ZM14.7 10.9297H11.4C11.45 10.2797 11.5 9.62969 11.5 8.92969C11.5 8.22969 11.45 7.57969 11.4 6.92969H14.7C14.9 7.57969 15 8.22969 15 8.92969C15 9.62969 14.9 10.2797 14.7 10.9297Z" fill="#85929B"/>
</svg>
