<svg width="14" height="17" viewBox="0 0 14 17" fill="none" xmlns="http://www.w3.org/2000/svg">
<path d="M12.3 5.32969L13.45 4.17969C13.65 3.97969 13.65 3.67969 13.45 3.47969C13.25 3.27969 12.95 3.27969 12.75 3.47969L11.6 4.62969C10.35 3.57969 8.75001 2.92969 7.00001 2.92969C5.25001 2.92969 3.65001 3.57969 2.40001 4.62969L1.30001 3.52969C1.10001 3.32969 0.800009 3.32969 0.600009 3.52969C0.400009 3.72969 0.400009 4.02969 0.600009 4.22969L1.75001 5.37969C0.450009 6.87969 -0.199991 8.87969 0.100009 11.0797C0.600009 14.1297 3.10001 16.5797 6.20001 16.9297C10.4 17.3797 14 14.0797 14 9.92969C14 8.17969 13.35 6.57969 12.3 5.32969ZM7.00001 15.9297C3.70001 15.9297 1.00001 13.2297 1.00001 9.92969C1.00001 6.62969 3.70001 3.92969 7.00001 3.92969C10.3 3.92969 13 6.62969 13 9.92969C13 13.2297 10.3 15.9297 7.00001 15.9297ZM5.50001 0.929688H8.50001C8.80001 0.929688 9.00001 1.12969 9.00001 1.42969C9.00001 1.72969 8.80001 1.92969 8.50001 1.92969H5.50001C5.20001 1.92969 5.00001 1.72969 5.00001 1.42969C5.00001 1.12969 5.20001 0.929688 5.50001 0.929688ZM7.00001 9.42969L9.60001 6.82969C9.80001 6.62969 10.1 6.62969 10.3 6.82969C10.5 7.02969 10.5 7.32969 10.3 7.52969L7.70001 10.1297C7.50001 10.3297 7.20001 10.3297 7.00001 10.1297C6.80001 9.92969 6.80001 9.57969 7.00001 9.42969ZM7.00001 4.92969C7.30001 4.92969 7.50001 5.12969 7.50001 5.42969C7.50001 5.72969 7.30001 5.92969 7.00001 5.92969C6.70001 5.92969 6.50001 5.72969 6.50001 5.42969C6.50001 5.12969 6.70001 4.92969 7.00001 4.92969ZM7.00001 13.9297C7.30001 13.9297 7.50001 14.1297 7.50001 14.4297C7.50001 14.7297 7.30001 14.9297 7.00001 14.9297C6.70001 14.9297 6.50001 14.7297 6.50001 14.4297C6.50001 14.1297 6.70001 13.9297 7.00001 13.9297ZM3.80001 6.22969C4.10001 6.22969 4.30001 6.42969 4.30001 6.72969C4.30001 7.02969 4.10001 7.22969 3.80001 7.22969C3.50001 7.22969 3.30001 7.02969 3.30001 6.72969C3.30001 6.42969 3.50001 6.22969 3.80001 6.22969ZM10.2 12.6297C10.5 12.6297 10.7 12.8297 10.7 13.1297C10.7 13.4297 10.5 13.6297 10.2 13.6297C9.90001 13.6297 9.70001 13.4297 9.70001 13.1297C9.70001 12.8297 9.90001 12.6297 10.2 12.6297ZM2.50001 9.42969C2.80001 9.42969 3.00001 9.62969 3.00001 9.92969C3.00001 10.2297 2.80001 10.4297 2.50001 10.4297C2.20001 10.4297 2.00001 10.2297 2.00001 9.92969C2.00001 9.62969 2.20001 9.42969 2.50001 9.42969ZM11.5 9.42969C11.8 9.42969 12 9.62969 12 9.92969C12 10.2297 11.8 10.4297 11.5 10.4297C11.2 10.4297 11 10.2297 11 9.92969C11 9.62969 11.2 9.42969 11.5 9.42969ZM3.80001 12.6297C4.10001 12.6297 4.30001 12.8297 4.30001 13.1297C4.30001 13.4297 4.10001 13.6297 3.80001 13.6297C3.50001 13.6297 3.30001 13.4297 3.30001 13.1297C3.30001 12.8297 3.50001 12.6297 3.80001 12.6297Z" fill="#85929B"/>
</svg>
