<svg width="16" height="16" viewBox="0 0 16 16" fill="none" xmlns="http://www.w3.org/2000/svg">
<path d="M8 1C6.61553 1 5.26215 1.41054 4.11101 2.17971C2.95987 2.94888 2.06266 4.04213 1.53285 5.32122C1.00303 6.6003 0.86441 8.00776 1.13451 9.36563C1.4046 10.7235 2.07129 11.9708 3.05026 12.9497C4.02922 13.9287 5.2765 14.5954 6.63437 14.8655C7.99224 15.1356 9.3997 14.997 10.6788 14.4672C11.9579 13.9373 13.0511 13.0401 13.8203 11.889C14.5895 10.7378 15 9.38447 15 8C15 6.14348 14.2625 4.36301 12.9497 3.05025C11.637 1.7375 9.85652 1 8 1Z" stroke="#525559" stroke-miterlimit="10"/>
<path d="M6.00001 6.04702C6.00001 6.04702 5.99027 5.28669 6.62385 4.59346C6.99965 4.18179 7.46866 4.04108 7.89607 4.00764C8.28543 3.97823 8.6375 4.03584 8.85201 4.14387C9.21933 4.32883 9.93982 4.79092 9.99586 5.86199C10.0548 6.98897 9.47552 7.53719 8.8144 8.14162C8.15328 8.74605 7.99773 9.36846 8.03077 10" stroke="#525559" stroke-miterlimit="10" stroke-linecap="round"/>
<path d="M7.84204 13.369C8.29616 13.3435 8.64368 12.9548 8.61825 12.5007C8.59283 12.0466 8.20409 11.699 7.74998 11.7245C7.29586 11.7499 6.94834 12.1386 6.97377 12.5927C6.99919 13.0469 7.38793 13.3944 7.84204 13.369Z" fill="#525559"/>
</svg>
