<svg width="20" height="20" viewBox="0 0 20 20" fill="none" xmlns="http://www.w3.org/2000/svg">
<path d="M18.75 3.75H13.75V2.5C13.75 1.125 12.625 0 11.25 0H8.75C7.375 0 6.25 1.125 6.25 2.5V3.75H1.25C0.875 3.75 0.625 4 0.625 4.375C0.625 4.75 0.875 5 1.25 5H2.5V16.25C2.5 18.3125 4.1875 20 6.25 20H13.75C15.8125 20 17.5 18.3125 17.5 16.25V5H18.75C19.125 5 19.375 4.75 19.375 4.375C19.375 4 19.125 3.75 18.75 3.75ZM7.5 2.5C7.5 1.8125 8.0625 1.25 8.75 1.25H11.25C11.9375 1.25 12.5 1.8125 12.5 2.5V3.75H7.5V2.5ZM16.25 16.25C16.25 17.625 15.125 18.75 13.75 18.75H6.25C4.875 18.75 3.75 17.625 3.75 16.25V5H16.25V16.25ZM7.5 14.375V9.375C7.5 9 7.75 8.75 8.125 8.75C8.5 8.75 8.75 9 8.75 9.375V14.375C8.75 14.75 8.5 15 8.125 15C7.75 15 7.5 14.75 7.5 14.375ZM11.25 14.375V9.375C11.25 9 11.5 8.75 11.875 8.75C12.25 8.75 12.5 9 12.5 9.375V14.375C12.5 14.75 12.25 15 11.875 15C11.5 15 11.25 14.75 11.25 14.375Z" fill="#2C2C2C"/>
</svg>
