<svg width="17" height="17" viewBox="0 0 17 17" fill="none" xmlns="http://www.w3.org/2000/svg">
<path d="M8.27783 0.97168C3.85997 0.97168 0.277832 4.54988 0.277832 8.96288C0.277832 13.3759 3.85997 16.9541 8.27783 16.9541C12.6957 16.9541 16.2778 13.3759 16.2778 8.96288C16.2778 4.54988 12.6957 0.97168 8.27783 0.97168ZM12.1225 6.9954C12.1278 7.07924 12.1278 7.16664 12.1278 7.25226C12.1278 9.8708 10.1314 12.8871 6.48319 12.8871C5.35819 12.8871 4.31533 12.5607 3.43676 11.9988C3.59747 12.0167 3.75105 12.0238 3.91533 12.0238C4.8439 12.0238 5.69747 11.7099 6.37783 11.1783C5.5064 11.1605 4.77426 10.5897 4.52426 9.80481C4.82962 9.8494 5.10462 9.8494 5.4189 9.76913C4.9702 9.67807 4.5669 9.43465 4.2775 9.08022C3.98811 8.72579 3.83049 8.28221 3.8314 7.82484V7.79987C4.0939 7.94792 4.40283 8.03889 4.72605 8.05138C4.45434 7.8705 4.23151 7.62544 4.07732 7.33793C3.92313 7.05043 3.84234 6.72936 3.84212 6.4032C3.84212 6.03396 3.93855 5.69683 4.11176 5.4043C4.6098 6.01672 5.23128 6.51761 5.9358 6.8744C6.64033 7.23119 7.41213 7.4359 8.20105 7.47523C7.92069 6.1285 8.92783 5.03863 10.1385 5.03863C10.71 5.03863 11.2243 5.27765 11.5868 5.66294C12.035 5.5791 12.4635 5.41143 12.8457 5.18668C12.6975 5.6451 12.3868 6.03218 11.9743 6.27655C12.3743 6.23374 12.76 6.12315 13.1171 5.96796C12.8475 6.36395 12.51 6.71535 12.1225 6.9954Z" fill="#56CCF2"/>
</svg>
