<svg width="33" height="33" viewBox="0 0 33 33" fill="none" xmlns="http://www.w3.org/2000/svg">
<path fill-rule="evenodd" clip-rule="evenodd" d="M8.91745 25.3388C14.5646 24.5138 18.4528 24.5848 24.1073 25.3677C24.5168 25.427 24.891 25.6326 25.1608 25.9463C25.4306 26.2601 25.5777 26.6608 25.575 27.0746C25.575 27.4706 25.4389 27.8551 25.193 28.1554C24.7645 28.6789 24.3256 29.1938 23.8764 29.6998H26.0552C26.1921 29.5364 26.3299 29.3698 26.4693 29.2006C26.9587 28.6005 27.2256 27.8498 27.225 27.0754C27.225 25.4048 26.0057 23.9652 24.3334 23.7342C18.5452 22.9331 14.4994 22.8564 8.67902 23.707C6.98942 23.9536 5.77502 25.4155 5.77502 27.0977C5.77502 27.8443 6.0184 28.5827 6.47957 29.1808C6.6157 29.3574 6.75017 29.5306 6.88382 29.7006H9.00985C8.59192 29.2002 8.18429 28.6914 7.7872 28.1743C7.55122 27.8648 7.42392 27.4861 7.42502 27.0969C7.42502 26.2084 8.06357 25.4634 8.91745 25.3388Z" fill="#525559"/>
<path fill-rule="evenodd" clip-rule="evenodd" d="M16.5 17.3249C17.1501 17.3249 17.7937 17.1969 18.3943 16.9481C18.9949 16.6993 19.5406 16.3347 20.0002 15.8751C20.4599 15.4154 20.8245 14.8697 21.0732 14.2692C21.322 13.6686 21.45 13.0249 21.45 12.3749C21.45 11.7249 21.322 11.0812 21.0732 10.4806C20.8245 9.88006 20.4599 9.33437 20.0002 8.87472C19.5406 8.41507 18.9949 8.05046 18.3943 7.8017C17.7937 7.55294 17.1501 7.4249 16.5 7.4249C15.1872 7.4249 13.9281 7.94642 12.9998 8.87472C12.0715 9.80303 11.55 11.0621 11.55 12.3749C11.55 13.6877 12.0715 14.9468 12.9998 15.8751C13.9281 16.8034 15.1872 17.3249 16.5 17.3249ZM16.5 18.9749C18.2505 18.9749 19.9292 18.2795 21.1669 17.0418C22.4047 15.8041 23.1 14.1253 23.1 12.3749C23.1 10.6245 22.4047 8.94574 21.1669 7.708C19.9292 6.47026 18.2505 5.7749 16.5 5.7749C14.7496 5.7749 13.0709 6.47026 11.8331 7.708C10.5954 8.94574 9.90002 10.6245 9.90002 12.3749C9.90002 14.1253 10.5954 15.8041 11.8331 17.0418C13.0709 18.2795 14.7496 18.9749 16.5 18.9749Z" fill="#525559"/>
<path fill-rule="evenodd" clip-rule="evenodd" d="M16.5 31.35C24.7013 31.35 31.35 24.7013 31.35 16.5C31.35 8.29867 24.7013 1.65 16.5 1.65C8.29867 1.65 1.65 8.29867 1.65 16.5C1.65 24.7013 8.29867 31.35 16.5 31.35ZM16.5 33C25.6129 33 33 25.6129 33 16.5C33 7.38705 25.6129 0 16.5 0C7.38705 0 0 7.38705 0 16.5C0 25.6129 7.38705 33 16.5 33Z" fill="#525559"/>
</svg>
