<svg width="20" height="17" viewBox="0 0 20 17">
<path d="M13.125 9.625C10.5625 9.625 8.4375 7.5 8.4375 4.9375C8.4375 2.375 10.5625 0.25 13.125 0.25C15.6875 0.25 17.8125 2.375 17.8125 4.9375C17.8125 7.5 15.6875 9.625 13.125 9.625ZM13.125 1.5C11.25 1.5 9.6875 3.0625 9.6875 4.9375C9.6875 6.8125 11.25 8.375 13.125 8.375C15 8.375 16.5625 6.8125 16.5625 4.9375C16.5625 3.0625 15 1.5 13.125 1.5ZM19.375 16.5625C19 16.5625 18.75 16.3125 18.75 15.9375C18.75 14.1875 17.3125 12.75 15.5625 12.75H10.625C8.875 12.75 7.4375 14.1875 7.4375 15.9375C7.4375 16.3125 7.1875 16.5625 6.8125 16.5625C6.4375 16.5625 6.1875 16.3125 6.1875 15.9375C6.1875 13.5 8.1875 11.5 10.625 11.5H15.5625C18 11.5 20 13.5 20 15.9375C20 16.25 19.75 16.5625 19.375 16.5625ZM7.125 9.625C4.5625 9.625 2.4375 7.5 2.4375 4.9375C2.4375 2.375 4.5 0.25 7.125 0.25C7.5 0.25 7.75 0.5 7.75 0.875C7.75 1.25 7.5 1.5 7.125 1.5C5.25 1.5 3.6875 3.0625 3.6875 4.9375C3.6875 6.8125 5.1875 8.375 7.125 8.375C7.5 8.375 7.75 8.625 7.75 9C7.75 9.375 7.4375 9.625 7.125 9.625ZM0.625 16.5625C0.25 16.5625 0 16.3125 0 15.9375C0 13.5 2 11.5 4.4375 11.5H5.625C6 11.5 6.25 11.75 6.25 12.125C6.25 12.5 6 12.75 5.625 12.75H4.4375C2.6875 12.75 1.25 14.1875 1.25 15.9375C1.25 16.25 1 16.5625 0.625 16.5625Z" />
</svg>
