<svg width="15" height="13" viewBox="0 0 15 13" fill="none" xmlns="http://www.w3.org/2000/svg">
<path d="M6.45018 4.01431C6.38584 3.9741 6.31192 3.95184 6.23608 3.94985C6.16024 3.94786 6.08525 3.96621 6.0189 4.00298C5.95255 4.03976 5.89724 4.09363 5.85874 4.159C5.82023 4.22436 5.79993 4.29884 5.79993 4.37471V8.75221C5.79991 8.82902 5.82072 8.9044 5.86013 8.97033C5.89954 9.03627 5.95609 9.09028 6.02375 9.12664C6.09141 9.163 6.16767 9.18035 6.2444 9.17683C6.32113 9.17331 6.39548 9.14906 6.45953 9.10666L9.85953 6.85501C9.91872 6.81577 9.96714 6.76233 10.0004 6.69956C10.0336 6.6368 10.0505 6.56671 10.0497 6.49569C10.0489 6.42468 10.0302 6.35501 9.99552 6.29305C9.96082 6.2311 9.91114 6.17882 9.85103 6.14101L6.45103 4.01431H6.45018Z" fill="#F96652"/>
<path d="M2.82495 0.549805C2.26137 0.549805 1.72086 0.773688 1.32235 1.1722C0.923834 1.57072 0.699951 2.11122 0.699951 2.6748V10.3248C0.699951 10.8884 0.923834 11.4289 1.32235 11.8274C1.72086 12.2259 2.26137 12.4498 2.82495 12.4498H12.175C12.7385 12.4498 13.279 12.2259 13.6776 11.8274C14.0761 11.4289 14.3 10.8884 14.3 10.3248V2.6748C14.3 2.11122 14.0761 1.57072 13.6776 1.1722C13.279 0.773688 12.7385 0.549805 12.175 0.549805H2.82495ZM1.54995 2.6748C1.54995 2.33665 1.68428 2.01235 1.92339 1.77324C2.1625 1.53413 2.4868 1.3998 2.82495 1.3998H12.175C12.5131 1.3998 12.8374 1.53413 13.0765 1.77324C13.3156 2.01235 13.45 2.33665 13.45 2.6748V10.3248C13.45 10.663 13.3156 10.9873 13.0765 11.2264C12.8374 11.4655 12.5131 11.5998 12.175 11.5998H2.82495C2.4868 11.5998 2.1625 11.4655 1.92339 11.2264C1.68428 10.9873 1.54995 10.663 1.54995 10.3248V2.6748Z" fill="#F96652"/>
</svg>
