<svg width="16" height="11" viewBox="0 0 16 11" fill="none" xmlns="http://www.w3.org/2000/svg">
<path d="M15.65 5.72969C14.2 2.77969 11.25 0.929688 8 0.929688C4.75 0.929688 1.8 2.77969 0.35 5.72969C0.3 5.87969 0.3 6.02969 0.35 6.17969C1.8 9.07969 4.75 10.9297 8 10.9297C11.25 10.9297 14.2 9.07969 15.65 6.12969C15.7 6.02969 15.7 5.82969 15.65 5.72969ZM8 9.92969C5.2 9.92969 2.7 8.37969 1.4 5.92969C2.7 3.47969 5.2 1.92969 8 1.92969C10.8 1.92969 13.3 3.47969 14.6 5.92969C13.3 8.37969 10.8 9.92969 8 9.92969ZM8 2.92969C6.35 2.92969 5 4.27969 5 5.92969C5 7.57969 6.35 8.92969 8 8.92969C9.65 8.92969 11 7.57969 11 5.92969C11 4.27969 9.65 2.92969 8 2.92969ZM8 7.92969C6.9 7.92969 6 7.02969 6 5.92969C6 4.82969 6.9 3.92969 8 3.92969C9.1 3.92969 10 4.82969 10 5.92969C10 7.02969 9.1 7.92969 8 7.92969Z" fill="#85929B"/>
</svg>
