<svg width="32" height="9" viewBox="0 0 32 9" fill="none" xmlns="http://www.w3.org/2000/svg">
<path d="M23.26 0.419502C22.5167 0.174265 21.731 0.051101 20.94 0.0557933C18.38 0.0557933 16.5733 1.22546 16.56 2.90142C16.544 4.13392 17.8453 4.8275 18.828 5.24075C19.8373 5.66367 20.1747 5.9295 20.172 6.31013C20.1653 6.8865 19.3653 7.1475 18.6227 7.1475C17.6013 7.1475 17.0413 7.01821 16.1813 6.69438L15.8627 6.56025L15.5013 8.49117C16.1227 8.72679 17.2427 8.92859 18.4013 8.94429C21.1227 8.94429 22.9013 7.78309 22.9227 5.99717C22.944 5.01479 22.2427 4.26925 20.7613 3.65542C19.8627 3.25667 19.3027 2.98963 19.3027 2.58484C19.3027 2.22717 19.7813 1.84534 20.7813 1.84534C21.4464 1.83088 22.1073 1.94327 22.7213 2.17521L22.9613 2.27308L23.3227 0.407419L23.26 0.419502ZM29.904 0.214086H27.904C27.2813 0.214086 26.816 0.367543 26.5427 0.92821L22.696 8.82346H25.4173L25.9613 7.53054L29.2813 7.53296C29.3627 7.83504 29.6013 8.82346 29.6013 8.82346H32L29.904 0.214086ZM12.88 0.141585H15.4707L13.8507 8.75579H11.2587L12.88 0.139169V0.141585ZM6.29467 4.88913L6.564 6.08538L9.09867 0.214086H11.844L7.76267 8.81138H5.024L2.784 1.52996C2.74787 1.40997 2.66185 1.30733 2.544 1.24359C1.73836 0.864334 0.883805 0.577366 0 0.389293L0.0333333 0.208044H4.208C4.77333 0.227377 5.22933 0.389294 5.38533 0.937877L6.29467 4.89275V4.88913ZM26.7053 5.76758L27.7387 3.35817C27.7253 3.38234 27.952 2.86034 28.0827 2.5365L28.26 3.27963L28.8587 5.76517H26.7053V5.76758Z" fill="white"/>
</svg>
