<svg width="19" height="20" viewBox="0 0 19 20" fill="none" xmlns="http://www.w3.org/2000/svg">
<path d="M9.16667 0.833252C14.25 0.833252 18.3333 4.91658 18.3333 9.99992C18.3333 15.0833 14.25 19.1666 9.16667 19.1666C4.08333 19.1666 0 15.0833 0 9.99992C0 4.91658 4.08333 0.833252 9.16667 0.833252ZM9.16667 17.4999C13.3333 17.4999 16.6667 14.1666 16.6667 9.99992C16.6667 5.83325 13.3333 2.49992 9.16667 2.49992C5 2.49992 1.66667 5.83325 1.66667 9.99992C1.66667 14.1666 5 17.4999 9.16667 17.4999ZM8.33333 5.83325V10.8333C8.33333 11.3333 8.66667 11.6666 9.16667 11.6666C9.66667 11.6666 10 11.3333 10 10.8333V5.83325C10 5.33325 9.66667 4.99992 9.16667 4.99992C8.66667 4.99992 8.33333 5.33325 8.33333 5.83325ZM9.16667 15.1666C9.75 15.1666 10.1667 14.6666 10.1667 14.1666C10.1667 13.6666 9.66667 13.1666 9.16667 13.1666C8.66667 13.1666 8.16667 13.5833 8.16667 14.1666C8.16667 14.7499 8.58333 15.1666 9.16667 15.1666Z" fill="#85929B"/>
</svg>
