<svg width="16" height="17" viewBox="0 0 16 17" fill="none" xmlns="http://www.w3.org/2000/svg">
<path d="M8 0.600586C3.6 0.600586 0 4.20059 0 8.60059C0 13.0006 3.6 16.6006 8 16.6006C12.4 16.6006 16 13.0006 16 8.60059C16 4.20059 12.4 0.600586 8 0.600586ZM14.3 5.60059H11.25C11 4.05059 10.55 2.75059 9.95 1.90059C11.9 2.45059 13.45 3.80059 14.3 5.60059ZM10.5 8.60059C10.5 9.30059 10.45 9.95059 10.4 10.6006H5.6C5.55 9.95059 5.5 9.30059 5.5 8.60059C5.5 7.90059 5.55 7.25059 5.6 6.60059H10.4C10.45 7.25059 10.5 7.90059 10.5 8.60059ZM8 15.6006C7.15 15.6006 6.2 14.0506 5.75 11.6006H10.25C9.8 14.0506 8.85 15.6006 8 15.6006ZM5.75 5.60059C6.2 3.15059 7.15 1.60059 8 1.60059C8.85 1.60059 9.8 3.15059 10.25 5.60059H5.75ZM6.05 1.90059C5.45 2.75059 5 4.05059 4.75 5.60059H1.7C2.55 3.80059 4.1 2.45059 6.05 1.90059ZM1.3 6.60059H4.6C4.55 7.25059 4.5 7.90059 4.5 8.60059C4.5 9.30059 4.55 9.95059 4.6 10.6006H1.3C1.1 9.95059 1 9.30059 1 8.60059C1 7.90059 1.1 7.25059 1.3 6.60059ZM1.7 11.6006H4.75C5 13.1506 5.45 14.4506 6.05 15.3006C4.1 14.7506 2.55 13.4006 1.7 11.6006ZM9.95 15.3006C10.55 14.4006 11 13.1506 11.25 11.6006H14.3C13.45 13.4006 11.9 14.7506 9.95 15.3006ZM14.7 10.6006H11.4C11.45 9.95059 11.5 9.30059 11.5 8.60059C11.5 7.90059 11.45 7.25059 11.4 6.60059H14.7C14.9 7.25059 15 7.90059 15 8.60059C15 9.30059 14.9 9.95059 14.7 10.6006Z" fill="#525559"/>
</svg>
