<svg width="108" height="64" viewBox="0 0 108 64" fill="none" xmlns="http://www.w3.org/2000/svg">
<path d="M107.294 14.4747C107.283 14.291 107.244 14.1163 107.224 13.9341C107.194 13.6228 107.126 13.31 107.056 12.9987C107.017 12.8241 106.978 12.6494 106.928 12.4672C106.849 12.165 106.769 11.8522 106.67 11.55C106.611 11.3845 106.551 11.2098 106.492 11.0458C106.372 10.7163 106.244 10.4035 106.106 10.0922C106.047 9.95401 105.987 9.81735 105.928 9.68827C105.71 9.24789 105.483 8.81663 105.235 8.40359C105.195 8.3307 105.145 8.27451 105.106 8.21073C104.878 7.85236 104.651 7.51372 104.403 7.17357C104.304 7.0445 104.195 6.91694 104.086 6.77875C103.894 6.52971 103.682 6.27915 103.471 6.03771C103.459 6.02404 103.445 6.01037 103.433 5.99671C103.333 5.89496 103.239 5.79322 103.147 5.6854C103.127 5.66263 103.106 5.63985 103.083 5.61859C102.847 5.39081 102.61 5.16303 102.374 4.92614C102.245 4.80617 102.117 4.68773 101.977 4.56776C101.701 4.32024 101.402 4.08183 101.106 3.85253C100.997 3.77964 100.899 3.69612 100.79 3.61412C100.384 3.31193 99.9576 3.02645 99.5219 2.7607C99.4221 2.70603 99.3237 2.65137 99.2254 2.59518C98.8789 2.39322 98.5219 2.20036 98.1558 2.01662C97.9878 1.93462 97.8184 1.86021 97.6504 1.77821C97.3433 1.64002 97.0362 1.50335 96.72 1.38339C96.5218 1.30139 96.3342 1.22698 96.136 1.1632C95.8198 1.04475 95.5021 0.943012 95.1859 0.8519C94.9877 0.788121 94.7895 0.722824 94.5823 0.668157C94.5127 0.649934 94.4537 0.631712 94.3841 0.613489L94.3735 0.6226C92.8076 0.229299 91.1631 0 89.4596 0H76.8313C72.5044 0 68.533 1.3758 65.4345 3.65968C64.5525 4.31113 63.7416 5.03547 63.0078 5.82511C62.6417 6.21993 62.2952 6.63297 61.9775 7.05361C60.681 8.76044 59.749 10.686 59.274 12.7679C59.0364 13.8141 58.9078 14.8862 58.9078 15.9872V40.2139C58.9078 41.3149 59.0364 42.3885 59.274 43.4332C59.749 45.5151 60.6795 47.4422 61.9775 49.1475C62.2937 49.5696 62.6417 49.9827 63.0078 50.376C63.7401 51.1656 64.5525 51.89 65.4345 52.5414C68.533 54.8253 72.5044 56.2011 76.8313 56.2011H84.0887C84.9133 56.2011 85.411 55.2869 84.9677 54.5899L82.2415 50.3122C81.7967 49.6152 80.9736 49.1839 80.1022 49.1839H76.8313C75.2669 49.1839 73.8902 48.7435 72.7419 48.001C72.6133 47.919 72.4938 47.8355 72.3758 47.7535C72.049 47.515 71.7419 47.2584 71.465 46.9744C71.2668 46.7816 71.0883 46.5796 70.9113 46.3685C70.5648 45.9464 70.2577 45.4969 69.9899 45.011C69.8507 44.7726 69.7327 44.525 69.6132 44.2684C69.3953 43.7643 69.2077 43.2404 69.0685 42.6998C68.9989 42.4249 68.9399 42.1592 68.89 41.8828C68.8008 41.3331 68.7508 40.7727 68.7508 40.2139V15.9887C68.7508 15.4299 68.8008 14.8695 68.89 14.3198C68.9399 14.045 68.9989 13.7792 69.0685 13.5028C69.2077 12.9622 69.3953 12.4383 69.6132 11.9342C69.7312 11.6776 69.8507 11.43 69.9899 11.1916C70.2577 10.7057 70.5648 10.2562 70.9113 9.83405C71.0898 9.62297 71.2683 9.42101 71.465 9.22815C71.8508 8.84245 72.2774 8.4947 72.7419 8.2001C73.8902 7.45754 75.2669 7.01716 76.8313 7.01716H89.4596C89.7364 7.01716 90.0042 7.03538 90.272 7.06272C90.5095 7.09005 90.738 7.1265 90.9649 7.17205C91.0148 7.18116 91.0738 7.19028 91.1238 7.19939C91.3219 7.24494 91.5201 7.29961 91.7077 7.3558C91.7607 7.37706 91.8212 7.39224 91.8772 7.40743C91.9105 7.41654 91.9422 7.42565 91.9755 7.4378C92.1359 7.4955 92.2872 7.55472 92.4324 7.62154C92.5217 7.65799 92.6109 7.69443 92.6896 7.73088C92.8379 7.80377 92.9861 7.87817 93.1359 7.96017C93.2252 8.01484 93.3144 8.0604 93.4037 8.11658C93.5429 8.19859 93.6609 8.2821 93.7895 8.37322C93.8878 8.437 93.9771 8.50229 94.0664 8.57518C94.1844 8.65718 94.2948 8.74981 94.4037 8.84093C94.5021 8.92293 94.5913 9.01556 94.6806 9.09756C94.7805 9.18867 94.8788 9.2813 94.9681 9.38153C95.0573 9.47264 95.139 9.55616 95.2207 9.64727C95.2374 9.66549 95.254 9.68523 95.2691 9.70497C95.3402 9.79609 95.4113 9.8872 95.484 9.97831C95.5732 10.0876 95.6625 10.1985 95.7412 10.3185C95.8108 10.4187 95.8894 10.5204 95.9484 10.6207C96.0377 10.7406 96.1073 10.8682 96.186 10.9972C96.245 11.0975 96.3055 11.1992 96.3645 11.3086C96.4341 11.4376 96.5037 11.5743 96.5717 11.7216C96.6217 11.8218 96.6701 11.9236 96.7109 12.0329C96.7805 12.1711 96.8395 12.326 96.8895 12.4733C96.9288 12.5735 96.9681 12.6752 97.009 12.7846C97.0589 12.941 97.1073 13.0959 97.1482 13.2523C97.1784 13.3616 97.2178 13.4634 97.2374 13.5636C97.2873 13.7291 97.3161 13.8931 97.3464 14.0586C97.366 14.1588 97.3963 14.2606 97.4054 14.3608C97.4356 14.5446 97.4553 14.7283 97.4749 14.9105C97.4855 14.9925 97.5052 15.0852 97.5052 15.1672C97.5355 15.442 97.5445 15.7078 97.5445 15.9841V40.2109C97.5445 40.4857 97.534 40.7515 97.5052 41.0279C97.5052 41.1099 97.4855 41.2025 97.4749 41.2845C97.4553 41.4682 97.4356 41.652 97.4054 41.8342C97.3948 41.9344 97.366 42.0362 97.3464 42.1364C97.3161 42.3019 97.2873 42.4659 97.2374 42.6314C97.2178 42.7316 97.1784 42.8334 97.1482 42.9427C97.1088 43.0991 97.0589 43.254 97.009 43.4104C96.9696 43.5213 96.9303 43.6215 96.8895 43.7217C96.8395 43.869 96.7805 44.0239 96.7109 44.1621C96.6716 44.2714 96.6217 44.3732 96.5717 44.4734C96.5021 44.6207 96.4326 44.7574 96.3645 44.8865C96.3055 44.9958 96.245 45.0975 96.186 45.1978C96.1073 45.3268 96.0377 45.4544 95.9484 45.5744C95.8894 45.6746 95.8092 45.7763 95.7412 45.8765C95.6625 45.9965 95.5732 46.1058 95.484 46.2167C95.4129 46.3078 95.3417 46.3989 95.2691 46.49C95.254 46.5098 95.2374 46.5295 95.2207 46.5477C95.1405 46.6373 95.0588 46.7224 94.9681 46.8135C94.8788 46.9137 94.7805 47.0063 94.6806 47.0974C94.5913 47.1794 94.5021 47.2721 94.4037 47.3541C94.2948 47.4452 94.1859 47.5378 94.0664 47.6198C93.9771 47.6927 93.8878 47.758 93.7895 47.8218C93.6609 47.9129 93.5414 47.9964 93.4037 48.0784C93.3144 48.1331 93.2252 48.1786 93.1359 48.2348C93.1057 48.2531 93.0663 48.2713 93.0376 48.2895C92.9181 48.3533 92.8091 48.4095 92.6911 48.4641C92.6125 48.5006 92.5232 48.537 92.4339 48.5735C92.2902 48.6403 92.1374 48.6995 91.977 48.7572C91.9453 48.7694 91.912 48.7785 91.8802 48.7876C91.8242 48.8028 91.7652 48.8179 91.7108 48.8392C91.5232 48.8939 91.325 48.9485 91.1268 48.9956C91.0769 49.0047 91.0178 49.0138 90.9679 49.023C90.7395 49.0685 90.5125 49.105 90.275 49.1323C90.0072 49.1596 90.0708 50.1406 89.7939 50.1406L88.9088 50.71C88.579 50.9226 88.3945 51.3023 88.4338 51.6941L88.7606 55.0166C88.7803 55.211 88.8529 55.3963 88.9709 55.5511L89.1418 55.7759C89.3461 56.0432 89.6653 56.198 90.0012 56.1859C90.1267 56.1813 90.2508 56.1753 90.3733 56.1677C91.7501 56.1039 93.086 55.8928 94.3735 55.5709L94.3841 55.58C94.4537 55.5618 94.5127 55.5344 94.5823 55.5253C94.7895 55.4707 94.9877 55.4054 95.1859 55.3416C95.5021 55.2505 95.8198 55.1487 96.136 55.0303C96.3342 54.9665 96.5218 54.8921 96.72 54.8101C96.8486 54.7645 96.9772 54.7099 97.0967 54.6537C97.2843 54.5808 97.4734 54.4973 97.6504 54.4153C97.8184 54.3333 97.9878 54.2589 98.1558 54.1769C98.4931 54.0113 98.8199 53.8276 99.1361 53.6454C99.1664 53.6363 99.1951 53.618 99.2254 53.5998C99.3237 53.5452 99.4236 53.4905 99.5219 53.4343C99.9576 53.1686 100.383 52.8846 100.79 52.5809C100.899 52.4989 100.999 52.4154 101.106 52.3425C101.402 52.1132 101.701 51.8748 101.977 51.6272C102.117 51.5073 102.245 51.3888 102.374 51.2689C102.61 51.032 102.847 50.8042 103.083 50.5764C103.106 50.5552 103.126 50.5324 103.147 50.5096C103.239 50.4018 103.333 50.3 103.433 50.1983C103.446 50.1846 103.459 50.171 103.471 50.1573C103.682 49.9159 103.893 49.6668 104.086 49.4163C104.195 49.2781 104.304 49.1505 104.403 49.0214C104.651 48.6813 104.878 48.3426 105.106 47.9843C105.145 47.9205 105.195 47.8643 105.235 47.7914C105.483 47.3784 105.71 46.9471 105.928 46.5067C105.987 46.3777 106.046 46.241 106.106 46.1028C106.245 45.7915 106.374 45.4787 106.492 45.1492C106.551 44.9836 106.611 44.809 106.67 44.645C106.769 44.3428 106.849 44.03 106.928 43.7278C106.978 43.5441 107.017 43.3694 107.056 43.1963C107.126 42.885 107.195 42.5722 107.224 42.2609C107.244 42.0772 107.283 41.9025 107.294 41.7203C107.353 41.2161 107.383 40.7211 107.383 40.2063V15.9887C107.383 15.4754 107.353 14.9804 107.294 14.4747Z" fill="url(#paint0_linear)"/>
<path d="M45.67 53.9855L11.5251 0.460117C11.3405 0.174632 11.0062 0 10.6431 0H1.02702C0.232739 0 -0.258956 0.78964 0.143478 1.41376L30.7663 49.0685C30.7663 49.0685 32.0311 51.7958 34.7906 53.6621C37.7514 55.6635 42.9952 55.6696 45.67 53.9855Z" fill="url(#paint1_linear)"/>
<path d="M51.3752 4.5875C51.3752 2.05458 49.1437 0 46.3902 0C43.6367 0 41.4052 2.05458 41.4052 4.5875C41.4052 4.69684 41.4112 4.80465 41.4188 4.91247C41.4112 4.96106 41.4052 5.00966 41.4052 5.05977V50.6311C41.4052 50.6311 41.4763 52.7586 40.098 55.1882L41.4052 55.2064C46.5491 54.9528 51.3752 50.8452 51.3752 45.7778V5.06129C51.3752 5.01117 51.3692 4.96106 51.3616 4.91399C51.3707 4.80465 51.3752 4.69684 51.3752 4.5875Z" fill="url(#paint2_linear)"/>
<path d="M100.238 54.7311C99.9774 54.35 98.9744 52.9028 96.8487 49.4542C96.0075 48.089 96.292 45.0019 96.3631 44.894C94.7397 47.9372 90.2101 45.427 88.0436 48.8923C87.1238 50.3623 87.2115 52.3759 87.685 53.7729C87.9316 54.5018 88.8545 56.3225 89.3341 57.0226C89.9332 57.8973 89.7426 57.6619 91.4401 60.1751C91.5188 60.3117 91.602 60.4454 91.6912 60.579C91.7744 60.702 91.8622 60.8189 91.9529 60.9343C91.9575 60.9404 91.962 60.9465 91.9651 60.9526C92.015 61.0255 92.0694 61.0908 92.1285 61.1485C93.9984 63.3412 97.0439 63.9486 99.2255 62.4559C101.584 60.8417 102.038 57.384 100.238 54.7311Z" fill="url(#paint3_linear)"/>
<defs>
<linearGradient id="paint0_linear" x1="66.9027" y1="2.67237" x2="99.5597" y2="53.4244" gradientUnits="userSpaceOnUse">
<stop stop-color="#FC563A"/>
<stop offset="0.8062" stop-color="#D43400"/>
</linearGradient>
<linearGradient id="paint1_linear" x1="3.88126" y1="-2.03224" x2="41.4234" y2="56.6995" gradientUnits="userSpaceOnUse">
<stop stop-color="#353238"/>
<stop offset="0.5755" stop-color="#333036"/>
<stop offset="0.8304" stop-color="#2C292F"/>
<stop offset="0.8634" stop-color="#2A282D"/>
</linearGradient>
<linearGradient id="paint2_linear" x1="32.2234" y1="8.10557" x2="57.1317" y2="46.8153" gradientUnits="userSpaceOnUse">
<stop stop-color="#59555C"/>
<stop offset="0.8062" stop-color="#38343B"/>
</linearGradient>
<linearGradient id="paint3_linear" x1="90.2946" y1="46.9629" x2="99.9604" y2="61.9845" gradientUnits="userSpaceOnUse">
<stop stop-color="#FC563A"/>
<stop offset="1" stop-color="#D43400"/>
</linearGradient>
</defs>
</svg>
